<svg id="Layer_1" data-name="Layer 1" xmlns="http://www.w3.org/2000/svg" xmlns:xlink="http://www.w3.org/1999/xlink" viewBox="0 0 385.6 1052.05"><defs><style>.cls-1,.cls-3,.cls-4{fill:none;}.cls-2{clip-path:url(#clip-path);}.cls-3{stroke:#f3efd8;}.cls-3,.cls-4{stroke-linecap:round;stroke-linejoin:round;stroke-width:8px;}.cls-4{stroke:#8e8e8e;}.cls-5{fill:#564232;}.cls-6{clip-path:url(#clip-path-2);}</style><clipPath id="clip-path"><rect class="cls-1" x="-1041.85" y="-69.87" width="753.12" height="245.46"/></clipPath><clipPath id="clip-path-2"><path class="cls-1" d="M55.29,1040c-3.68,0-15.53-9.15-26.13-50.93-9.37-36.93-14.53-86.19-14.53-138.71,0-47.47,4.23-77,12.94-90.34,5.87-9,13.27-9.39,26.92-9.39h1.59c13.66,0,21,.42,26.92,9.38,8.71,13.32,12.94,42.87,12.94,90.35,0,52.52-5.16,101.78-14.53,138.71C70.81,1030.89,59,1040,55.29,1040Z"/></clipPath></defs><g class="cls-2"><path class="cls-3" d="M-72,10.26A37.25,37.25,0,0,0-34.93,47.69,37.25,37.25,0,0,0,2.13,10.26"/><path class="cls-3" d="M-34.93,51.17A37.25,37.25,0,0,0,2.13,88.61,37.25,37.25,0,0,0,39.19,51.17"/><path class="cls-3" d="M-72,92.08a37.25,37.25,0,0,0,37.06,37.44A37.25,37.25,0,0,0,2.13,92.08"/><path class="cls-3" d="M2.13,92.08a37.06,37.06,0,1,0,74.12,0"/><path class="cls-3" d="M-34.93,133A37.25,37.25,0,0,0,2.13,170.43,37.25,37.25,0,0,0,39.19,133"/><path class="cls-3" d="M39.19,133a37.06,37.06,0,1,0,74.12,0"/><path class="cls-3" d="M-72,173.9a37.25,37.25,0,0,0,37.06,37.44A37.25,37.25,0,0,0,2.13,173.9"/><path class="cls-3" d="M2.13,173.9a37.06,37.06,0,1,0,74.12,0"/><path class="cls-3" d="M76.25,173.9a37.07,37.07,0,1,0,74.13,0"/><path class="cls-3" d="M-34.93,214.81A37.25,37.25,0,0,0,2.13,252.25a37.25,37.25,0,0,0,37.06-37.44"/><path class="cls-3" d="M39.19,214.81a37.06,37.06,0,1,0,74.12,0"/><path class="cls-3" d="M113.31,214.81a37.07,37.07,0,1,0,74.13,0"/></g><ellipse class="cls-4" cx="55.29" cy="27.91" rx="13.95" ry="23.91"/><line class="cls-4" x1="55.29" y1="33.78" x2="55.29" y2="93.91"/><ellipse class="cls-4" cx="55.29" cy="99.34" rx="13.95" ry="23.91"/><line class="cls-4" x1="55.29" y1="105.21" x2="55.29" y2="165.34"/><ellipse class="cls-4" cx="55.29" cy="170.76" rx="13.95" ry="23.91"/><line class="cls-4" x1="55.29" y1="176.64" x2="55.29" y2="236.77"/><ellipse class="cls-4" cx="55.29" cy="242.19" rx="13.95" ry="23.91"/><line class="cls-4" x1="55.29" y1="248.06" x2="55.29" y2="308.2"/><ellipse class="cls-4" cx="55.29" cy="313.62" rx="13.95" ry="23.91"/><line class="cls-4" x1="55.29" y1="319.49" x2="55.29" y2="379.63"/><ellipse class="cls-4" cx="55.29" cy="385.05" rx="13.95" ry="23.91"/><line class="cls-4" x1="55.29" y1="390.92" x2="55.29" y2="451.05"/><ellipse class="cls-4" cx="55.29" cy="456.48" rx="13.95" ry="23.91"/><line class="cls-4" x1="55.29" y1="462.35" x2="55.29" y2="522.48"/><ellipse class="cls-4" cx="55.29" cy="527.9" rx="13.95" ry="23.91"/><line class="cls-4" x1="55.29" y1="533.78" x2="55.29" y2="593.91"/><ellipse class="cls-4" cx="55.29" cy="599.33" rx="13.95" ry="23.91"/><line class="cls-4" x1="55.29" y1="605.21" x2="55.29" y2="665.34"/><ellipse class="cls-4" cx="55.29" cy="670.76" rx="13.95" ry="23.91"/><line class="cls-4" x1="55.29" y1="676.63" x2="55.29" y2="736.77"/><path class="cls-5" d="M68.11,651.85H42.46a29.65,29.65,0,0,0-25.67,14.82L4,688.88a29.66,29.66,0,0,0,0,29.64l12.82,22.21a29.65,29.65,0,0,0,25.67,14.82H68.11a29.65,29.65,0,0,0,25.67-14.82l12.82-22.21a29.66,29.66,0,0,0,0-29.64L93.78,666.67A29.65,29.65,0,0,0,68.11,651.85Z"/><path class="cls-5" d="M105.94,850.4c0,110.26-22.68,199.64-50.65,199.64S4.63,960.66,4.63,850.4,27.31,740.67,55.29,740.67,105.94,740.14,105.94,850.4Z"/><path class="cls-3" d="M42.46,745.55a19.7,19.7,0,0,1-17-9.82L12.63,713.52a19.68,19.68,0,0,1,0-19.64l12.82-22.21a19.72,19.72,0,0,1,17-9.82H68.11a19.72,19.72,0,0,1,17,9.82l12.82,22.21a19.68,19.68,0,0,1,0,19.64L85.12,735.73a19.7,19.7,0,0,1-17,9.82Z"/><g class="cls-6"><line class="cls-3" x1="-145.85" y1="676.63" x2="197.27" y2="881.58"/><line class="cls-3" x1="-145.85" y1="731.86" x2="197.27" y2="936.81"/><line class="cls-3" x1="-145.85" y1="787.08" x2="197.27" y2="992.03"/><line class="cls-3" x1="-145.85" y1="842.3" x2="197.27" y2="1047.25"/><line class="cls-3" x1="-145.85" y1="897.53" x2="197.27" y2="1102.48"/><line class="cls-3" x1="-145.85" y1="952.75" x2="197.27" y2="1157.7"/><line class="cls-3" x1="-145.85" y1="1007.98" x2="197.27" y2="1212.93"/><line class="cls-3" x1="197.27" y1="676.63" x2="-145.85" y2="881.58"/><line class="cls-3" x1="197.27" y1="731.86" x2="-145.85" y2="936.81"/><line class="cls-3" x1="197.27" y1="787.08" x2="-145.85" y2="992.03"/><line class="cls-3" x1="197.27" y1="842.3" x2="-145.85" y2="1047.25"/><line class="cls-3" x1="197.27" y1="897.53" x2="-145.85" y2="1102.48"/><line class="cls-3" x1="197.27" y1="952.75" x2="-145.85" y2="1157.7"/><line class="cls-3" x1="197.27" y1="1007.98" x2="-145.85" y2="1212.93"/></g><path class="cls-3" d="M55.29,1040c-3.68,0-15.53-9.15-26.13-50.93-9.37-36.93-14.53-86.19-14.53-138.71,0-47.47,4.23-77,12.94-90.34,5.87-9,13.27-9.39,26.92-9.39h1.59c13.66,0,21,.42,26.92,9.38,8.71,13.32,12.94,42.87,12.94,90.35,0,52.52-5.16,101.78-14.53,138.71C70.81,1030.89,59,1040,55.29,1040Z"/></svg>