<svg id="Layer_1" data-name="Layer 1" xmlns="http://www.w3.org/2000/svg" viewBox="0 0 333.64 312.03"><defs><clipPath id="clip-path"><path style="fill:none" d="M-924.82 306.93h753.12v245.46h-753.12z"/></clipPath><style>.cls-3{fill:none;stroke:#f3efd8;stroke-linecap:round;stroke-linejoin:round;stroke-width:8px}.cls-6{fill:#f3efd8}</style></defs><g style="clip-path:url(#clip-path)"><path class="cls-3" d="M-66.15 264.32a37.25 37.25 0 0 0 37.06 37.44A37.26 37.26 0 0 0 8 264.32M-29.09 305.23A37.26 37.26 0 0 0 8 342.67a37.25 37.25 0 0 0 37-37.44"/></g><path d="M147.6 194.88c20.12-2.92 40-3.47 57.8 5.74 5.25 2.72 13.84 10.59 13.31 15.62-2.91 27.84-85.12 41-84.67 18.51 1.11-10.39 46.17-13.32 63.32-5.43 8.06 3.71 13.45 8.89 13.3 16.44-.22 10.86-9.95 18.55-13.29 21-12.71 9.2-54.36 11.81-47.51-1.94 10.24-7.4 51.77-9.43 48.65 12.86a11.81 11.81 0 0 1-7.21 9.65c-6.1 2.59-20.14 7-24.09 2.7-1.55-2.85 5.85-6.56 13.61-4.87 4.27.93 10.48 2.17 8.15 9.79-1.06 3.49-9.81 7-9.44 13.11" style="stroke:#8e8e8e;stroke-linecap:round;stroke-linejoin:round;stroke-width:8px;fill:none"/><path d="M237.39 72.79c-7.13 5.79-13.54 12.4-19.94 19q-3.16 3.27-6.34 6.52a71.14 71.14 0 0 0-13.8-8.16 36.33 36.33 0 0 0 5.17-18.72c0-20.15-16.33-30.18-36.48-30.18s-36.48 10-36.48 30.18a36.32 36.32 0 0 0 5.16 18.72 71.18 71.18 0 0 0-12.83 7.46l-5.66-5.82c-6.4-6.58-12.81-13.19-19.94-19A118.81 118.81 0 0 0 0 48.77c3.27 30.23 19.3 59.68 45.2 75.6a81.44 81.44 0 0 0 51.38 11.29 59.46 59.46 0 0 0-1.3 12.34c0 50.22 70.72 64.5 70.72 64.5s70.71-10.19 70.71-64.5a59.48 59.48 0 0 0-1.34-12.51 81.41 81.41 0 0 0 53.07-11.07c25.9-15.92 41.94-45.37 45.2-75.6a118.81 118.81 0 0 0-96.25 23.97Z" style="fill:#564232"/><path class="cls-3" d="M166.27 202.25c-10.07-2.47-61-16.82-61-54.3a49.3 49.3 0 0 1 1.08-10.22l2.88-13.59-13.8 1.58a69.78 69.78 0 0 1-7.94.46 71.66 71.66 0 0 1-37.06-10.32C31 103.9 16.58 82 11.44 57.19c3.44-.34 6.91-.51 10.39-.51 24.61 0 49.43 8.7 68.12 23.88 6.68 5.43 13 11.91 19.07 18.18l11.71 12.05 7-5.12a62.36 62.36 0 0 1 11-6.43L149 94.62 143.26 85a26.43 26.43 0 0 1-3.74-13.58c0-6.43 2.2-11.24 6.74-14.69s11.66-5.49 19.74-5.49 15.08 2 19.73 5.49 6.75 8.26 6.75 14.69A26.44 26.44 0 0 1 188.73 85L183 94.62l10.24 4.62a62.28 62.28 0 0 1 11.88 7l7 5.33 12.49-12.86C230.71 92.47 237 86 243.7 80.56c18.68-15.18 43.51-23.88 68.11-23.88 3.48 0 7 .17 10.39.51-5.14 24.78-19.56 46.71-39 58.67a71.59 71.59 0 0 1-37 10.31 68.48 68.48 0 0 1-9.42-.64l-14.14-1.94 3 14a49.41 49.41 0 0 1 1.11 10.4c0 18.39-10 33-29.59 43.54a114.09 114.09 0 0 1-30.89 10.72Z"/><path class="cls-6" d="m163.25 94.11-4.82-4.82c-2-2-2-3.16 0-5.13l4.82-3.83a5.07 5.07 0 0 1 7.14 0l4.82 3.83c2 2 2 3.16 0 5.13l-4.82 4.82a5.05 5.05 0 0 1-7.14 0Z"/><circle class="cls-6" cx="152.35" cy="74.26" r="4.6"/><circle class="cls-6" cx="181.29" cy="74.26" r="4.6"/><path class="cls-3" d="M56 88.53c6-.71 9.17-8.25-.2-11.28-4.94-1.61-27.39 9.19-27.39 9.19S49.23 89.33 56 88.53ZM80.7 113.26c6-.71 9.16-8.25-.2-11.29-5-1.6-27.39 9.19-27.39 9.19s20.89 2.9 27.59 2.1ZM278 88.53c-5.95-.71-9.16-8.25.2-11.28 4.95-1.61 27.39 9.19 27.39 9.19s-20.81 2.89-27.59 2.09ZM253.3 113.26c-5.94-.71-9.16-8.25.2-11.29 4.95-1.6 27.39 9.19 27.39 9.19s-20.84 2.9-27.59 2.1Z"/><path d="M191 32.17a8.82 8.82 0 0 0-1.28-1.31 97.48 97.48 0 0 0-2.8-9.81c-.6-1.81-1.16-3.38-1.68-4.75a8.24 8.24 0 0 0 2-4 8.4 8.4 0 0 0 .18-1.57 7.36 7.36 0 0 0 .19-1.43 7.91 7.91 0 0 0-1.67-5.26 8.1 8.1 0 0 0-3.28-2.51A8.27 8.27 0 0 0 178.15 0h-.25a8.25 8.25 0 0 0-5.79 2.42 8.29 8.29 0 0 0-4.2 7.73 8.6 8.6 0 0 0 .8 3q-4.87 6.6-9.24 13.57a8.44 8.44 0 0 0-5.47 6.91 8.05 8.05 0 0 0 0 2.3l.69 2.3a9.09 9.09 0 0 0 1 1.63A8.37 8.37 0 0 0 161.3 43l22 2.71a7.37 7.37 0 0 0 1 .07 8.46 8.46 0 0 0 6.7-13.61Z" style="fill:#896a55"/><path class="cls-6" d="M182.62 9.09a3 3 0 0 0-.64-2A3 3 0 0 0 180.19 6 3.33 3.33 0 0 0 178 5a3.28 3.28 0 0 0-2.71 1.4l-.24.12a3.45 3.45 0 0 0-2.14 3.25 3.18 3.18 0 0 0 1.22 2.34A3.23 3.23 0 0 0 175.6 14a3.36 3.36 0 0 0 2.45.3 3.3 3.3 0 0 0 .82-.36 3.54 3.54 0 0 0 .95-.06 3.14 3.14 0 0 0 1.64-.88 3.28 3.28 0 0 0 .88-1.61 3.18 3.18 0 0 0 .07-.92v-.28a2.9 2.9 0 0 0 .21-1.1Zm-4.27 1.75Z"/><rect class="cls-6" x="157.63" y="32.04" width="31.05" height="8.72" rx="4.36" transform="rotate(7.03 173.25 36.421)"/></svg>