<svg data-name="Layer 1" xmlns="http://www.w3.org/2000/svg" viewBox="0 0 258.32 1044.86"><defs><style>.cls-1{fill:#896a55}.cls-2{fill:none;stroke:#f3efd8;stroke-linecap:round;stroke-linejoin:round;stroke-width:8px}</style></defs><path class="cls-1" d="M106.69 0h44.39v759.73h-44.39z"/><path class="cls-2" d="M116.69 0v775.11M140.98 0v775.11"/><path class="cls-1" d="M183.83 806.62a21.56 21.56 0 0 0 1.08-6.74V786.3a21.82 21.82 0 0 0-17.7-21.39 16 16 0 0 0 .21-2.59c0-10.66-10.24-19.65-26.08-22.89l-.56 2.71.14-2.79h.13l-.87-.16c-.55-1.05-1.29-2.74-1.78-3.86-1.49-3.39-2.47-5.54-3.94-6.91a8.05 8.05 0 0 0-10.6 0c-1.47 1.37-2.45 3.52-3.93 6.91-.49 1.12-1.23 2.82-1.79 3.86l-.87.16h.1l.17 2.78-.55-2.71c-15.85 3.24-26.08 12.23-26.08 22.89a16 16 0 0 0 .2 2.59 21.81 21.81 0 0 0-17.69 21.4v13.58a21.56 21.56 0 0 0 1.07 6.74C29.05 825.58 0 866.13 0 911.29c0 48.81 34.54 92.56 85.94 108.87l.53-1.66-.14 1.84h.14a2.36 2.36 0 0 1 .44.11c2.73.84 5.53 1.61 8.32 2.29l.34.1c6.87 2.49 16.34 7.32 22.44 16.17a13.58 13.58 0 0 0 22.3 0c6.1-8.85 15.57-13.68 22.43-16.17l.35-.1c2.78-.68 5.58-1.45 8.34-2.3a3.06 3.06 0 0 1 .41-.1h.15l-.14-1.84.53 1.66c51.41-16.31 85.94-60.06 85.94-108.87 0-45.16-29.05-85.71-74.49-104.67Z"/><path class="cls-2" d="M129.16 1034.27a2.92 2.92 0 0 1-2.43-1.25c-7.69-11.15-19.22-17.09-27.55-20.11a12.28 12.28 0 0 0-1.45-.44c-2.59-.63-5.17-1.34-7.69-2.12l-.9-.25v0c-22.86-7.25-42.42-20.37-56.59-38-14.38-17.83-22-38.86-22-60.83a96.05 96.05 0 0 1 20.25-58.56c13-17 31.14-30.24 52.48-38.17l6.72-2.49-4-5.9a11.09 11.09 0 0 1-2-6.27V786.3a11.2 11.2 0 0 1 11.19-11.19h14l-6.27-8.82a6.86 6.86 0 0 1-1.43-4c0-5.16 7.41-10.43 17.62-12.52h.23c.63-.13 1.27-.24 1.92-.34l.65-.13c3.59-.84 5.31-4.23 7.25-8.63 1.94 4.4 3.66 7.79 7.27 8.63.2.05.43.09.66.13.62.1 1.27.21 1.9.34h.22c10.21 2.09 17.62 7.36 17.62 12.52a6.86 6.86 0 0 1-1.43 4l-6.27 8.82h14a11.2 11.2 0 0 1 11.19 11.19v13.58a11.08 11.08 0 0 1-1.94 6.27l-4 5.9 6.7 2.49c21.33 7.93 39.48 21.13 52.48 38.17a96.05 96.05 0 0 1 20.21 58.58c0 22-7.6 43-22 60.83-14.17 17.58-33.74 30.7-56.59 38v0l-.9.25c-2.51.78-5.1 1.49-7.69 2.12a12.88 12.88 0 0 0-1.45.44c-8.32 3-19.86 9-27.55 20.11a2.91 2.91 0 0 1-2.43 1.23Z"/><path class="cls-2" d="M126.73 1033.79c-7.69-11.15-19.22-17.09-27.55-20.11-.47-.17-.94-.31-1.45-.44-2.58-.62-5.16-1.33-7.69-2.12l-.9-.24v0c-22.85-7.25-42.42-20.37-56.58-37.94-14.38-17.83-22-38.87-22-60.83 0-52.69 44.48-97.43 103.47-104.07"/><path class="cls-2" d="M120.1 808C84.71 814.64 58 859.38 58 912.07c0 22 4.56 43 13.18 60.83 8.5 17.57 20.24 30.69 34 37.94v0l.54.24c1.51.79 3.07 1.5 4.61 2.12a7.22 7.22 0 0 1 .88.44c5 3 11.91 9 16.52 20.11"/><path class="cls-2" d="M126.14 808c-11.8 6.64-20.69 51.38-20.69 104.07a392.07 392.07 0 0 0 4.39 60.83c2.83 17.57 6.75 30.69 11.32 37.94v0l.18.24a20.76 20.76 0 0 0 1.54 2.12 4.2 4.2 0 0 1 .29.44c1.66 3 4 9 5.51 20.11M132.18 808c11.8 6.64 20.7 51.38 20.7 104.07a390.77 390.77 0 0 1-4.4 60.83c-2.83 17.57-6.74 30.69-11.31 37.94v0l-.18.24a22.89 22.89 0 0 1-1.54 2.12 3 3 0 0 0-.29.44c-1.67 3-4 9-5.51 20.11"/><path class="cls-2" d="M138.22 808c35.4 6.64 62.09 51.38 62.09 104.07 0 22-4.56 43-13.18 60.83-8.51 17.57-20.25 30.69-34 37.94v0l-.54.24c-1.52.79-3.07 1.5-4.62 2.12a7.09 7.09 0 0 0-.87.44c-5 3-11.91 9-16.53 20.11"/><path class="cls-2" d="M144.26 808c59 6.64 103.48 51.38 103.48 104.07 0 22-7.6 43-22 60.83-14.17 17.57-33.74 30.69-56.59 37.94v0c-.3.07-.6.15-.89.24-2.53.79-5.12 1.5-7.69 2.12-.51.13-1 .27-1.46.44-8.32 3-19.86 9-27.55 20.11"/><path d="M102 792.13s40.62-4.69 72 4.19" style="stroke-dasharray:5 20;fill:none;stroke:#f3efd8;stroke-linecap:round;stroke-linejoin:round;stroke-width:8px"/><path class="cls-2" d="M93.31 811.38s35.85-9.81 72.09 0"/></svg>