<svg xmlns="http://www.w3.org/2000/svg" xmlns:xlink="http://www.w3.org/1999/xlink" x="0" y="0" viewBox="0 0 110.6 1052.1" style="enable-background:new 0 0 110.6 1052.1" xml:space="preserve"><style>.st1,.st2{fill:none;stroke:#f3efd8;stroke-width:8;stroke-linecap:round;stroke-linejoin:round}.st2{stroke:#8e8e8e}.st3{fill:#564232}</style><defs><path id="SVGID_1_" d="M-1041.8-69.9h753.1v245.5h-753.1z"/></defs><clipPath id="SVGID_2_"><use xlink:href="#SVGID_1_" style="overflow:visible"/></clipPath><g style="clip-path:url(#SVGID_2_)"><path class="st1" d="M-72 10.3c-.1 20.6 16.5 37.3 37.1 37.4 0 0 0 0 0 0 20.6-.1 37.2-16.9 37.1-37.4M-34.9 51.2c-.1 20.5 16.5 37.3 37 37.4 0 0 0 0 0 0 20.6-.1 37.2-16.9 37.1-37.4 0 0 0 0 0 0M-72 92.1c-.1 20.6 16.5 37.3 37.1 37.4 0 0 0 0 0 0 20.6-.1 37.2-16.9 37.1-37.4 0 0 0 0 0 0"/><path class="st1" d="M2.1 92.1c0 20.5 16.6 37.1 37 37.1 20.5 0 37.1-16.6 37.1-37 0 0 0 0 0 0M-34.9 133c-.1 20.6 16.5 37.3 37.1 37.4 20.6-.1 37.2-16.9 37.1-37.4"/><path class="st1" d="M39.2 133c0 20.5 16.6 37.1 37 37.1 20.5 0 37.1-16.6 37.1-37 0 0 0 0 0 0M-72 173.9c-.1 20.6 16.5 37.3 37.1 37.4 0 0 0 0 0 0 20.6-.1 37.2-16.9 37.1-37.4 0 0 0 0 0 0"/><path class="st1" d="M2.1 173.9c0 20.5 16.6 37.1 37 37.1 20.5 0 37.1-16.6 37.1-37 0 0 0 0 0 0"/><path class="st1" d="M76.2 173.9c-.3 20.5 16 37.3 36.5 37.7 20.5.3 37.3-16 37.7-36.5v-1.2M-34.9 214.8c-.1 20.6 16.5 37.3 37.1 37.4 0 0 0 0 0 0 20.6-.1 37.2-16.9 37.1-37.4 0 0 0 0 0 0"/><path class="st1" d="M39.2 214.8c0 20.5 16.6 37.1 37 37.1 20.5 0 37.1-16.6 37.1-37 0 0 0 0 0 0"/><path class="st1" d="M113.3 214.8c-.3 20.5 16 37.3 36.5 37.7 20.5.3 37.3-16 37.7-36.5v-1.2"/></g><ellipse class="st2" cx="55.3" cy="27.9" rx="13.9" ry="23.9"/><path class="st2" d="M55.3 33.8v60.1"/><ellipse class="st2" cx="55.3" cy="99.3" rx="13.9" ry="23.9"/><path class="st2" d="M55.3 105.2v60.1"/><ellipse class="st2" cx="55.3" cy="170.8" rx="13.9" ry="23.9"/><path class="st2" d="M55.3 176.6v60.2"/><ellipse class="st2" cx="55.3" cy="242.2" rx="13.9" ry="23.9"/><path class="st2" d="M55.3 248.1v60.1"/><ellipse class="st2" cx="55.3" cy="313.6" rx="13.9" ry="23.9"/><path class="st2" d="M55.3 319.5v60.1"/><ellipse class="st2" cx="55.3" cy="385" rx="13.9" ry="23.9"/><path class="st2" d="M55.3 390.9V451"/><ellipse class="st2" cx="55.3" cy="456.5" rx="13.9" ry="23.9"/><path class="st2" d="M55.3 462.4v60.1"/><ellipse class="st2" cx="55.3" cy="527.9" rx="13.9" ry="23.9"/><path class="st2" d="M55.3 533.8v60.1"/><ellipse class="st2" cx="55.3" cy="599.3" rx="13.9" ry="23.9"/><path class="st2" d="M55.3 605.2v60.1"/><ellipse class="st2" cx="55.3" cy="670.8" rx="13.9" ry="23.9"/><path class="st2" d="M55.3 676.6v60.2"/><path class="st3" d="M68.1 651.8H42.5c-10.6 0-20.4 5.7-25.7 14.8L4 688.9c-5.3 9.2-5.3 20.5 0 29.6l12.8 22.2c5.3 9.2 15.1 14.8 25.7 14.8h25.6c10.6 0 20.4-5.7 25.7-14.8l12.8-22.2c5.3-9.2 5.3-20.5 0-29.6l-12.8-22.2c-5.3-9.2-15.1-14.8-25.7-14.9z"/><path class="st3" d="M105.9 850.4c0 110.3-22.7 199.6-50.7 199.6S4.6 960.7 4.6 850.4s22.7-109.7 50.7-109.7 50.6-.6 50.6 109.7z"/><path class="st1" d="M42.5 745.5c-7 0-13.5-3.8-17-9.8l-12.8-22.2c-3.5-6.1-3.5-13.6 0-19.6l12.8-22.2c3.5-6.1 10-9.8 17-9.8h25.7c7 0 13.5 3.8 17 9.8L98 693.9c3.5 6.1 3.5 13.6 0 19.6l-12.8 22.2c-3.5 6.1-10 9.8-17 9.8H42.5z"/><g><defs><path id="SVGID_3_" d="M55.3 1040c-3.7 0-15.5-9.2-26.1-50.9-9.4-36.9-14.5-86.2-14.5-138.7 0-47.5 4.2-77 12.9-90.3 5.9-9 13.3-9.4 26.9-9.4h1.6c13.7 0 21 .4 26.9 9.4 8.7 13.3 12.9 42.9 12.9 90.3 0 52.5-5.2 101.8-14.5 138.7-10.6 41.8-22.4 50.9-26.1 50.9z"/></defs><clipPath id="SVGID_4_"><use xlink:href="#SVGID_3_" style="overflow:visible"/></clipPath><g style="clip-path:url(#SVGID_4_)"><path class="st1" d="m-145.9 676.6 343.2 205M-145.9 731.9l343.2 204.9M-145.9 787.1 197.3 992M-145.9 842.3l343.2 204.9M-145.9 897.5l343.2 205M-145.9 952.8l343.2 204.9M-145.9 1008l343.2 204.9M197.3 676.6l-343.2 205M197.3 731.9l-343.2 204.9M197.3 787.1-145.9 992M197.3 842.3l-343.2 204.9M197.3 897.5l-343.2 205M197.3 952.8l-343.2 204.9M197.3 1008l-343.2 204.9"/></g></g><path class="st1" d="M55.3 1040c-3.7 0-15.5-9.2-26.1-50.9-9.4-36.9-14.5-86.2-14.5-138.7 0-47.5 4.2-77 12.9-90.3 5.9-9 13.3-9.4 26.9-9.4h1.6c13.7 0 21 .4 26.9 9.4 8.7 13.3 12.9 42.9 12.9 90.3 0 52.5-5.2 101.8-14.5 138.7-10.6 41.8-22.4 50.9-26.1 50.9z"/></svg>