<?xml version="1.0" encoding="utf-8"?>
<!-- Generator: Adobe Illustrator 25.2.3, SVG Export Plug-In . SVG Version: 6.00 Build 0)  -->
<svg version="1.1" id="Layer_1" xmlns="http://www.w3.org/2000/svg" xmlns:xlink="http://www.w3.org/1999/xlink" x="0px" y="0px"
	 viewBox="0 0 110.6 1052.1" style="enable-background:new 0 0 110.6 1052.1;" xml:space="preserve">
<style type="text/css">
	.st0{clip-path:url(#SVGID_2_);}
	.st1{fill:none;stroke:#F3EFD8;stroke-width:8;stroke-linecap:round;stroke-linejoin:round;}
	.st2{fill:none;stroke:#8E8E8E;stroke-width:8;stroke-linecap:round;stroke-linejoin:round;}
	.st3{fill:#564232;}
	.st4{clip-path:url(#SVGID_4_);}
</style>
<g>
	<defs>
		<rect id="SVGID_1_" x="-1041.8" y="-69.9" width="753.1" height="245.5"/>
	</defs>
	<clipPath id="SVGID_2_">
		<use xlink:href="#SVGID_1_"  style="overflow:visible;"/>
	</clipPath>
	<g class="st0">
		<path class="st1" d="M-72,10.3c-0.1,20.6,16.5,37.3,37.1,37.4c0,0,0,0,0,0c20.6-0.1,37.2-16.9,37.1-37.4"/>
		<path class="st1" d="M-34.9,51.2C-35,71.7-18.4,88.5,2.1,88.6c0,0,0,0,0,0c20.6-0.1,37.2-16.9,37.1-37.4c0,0,0,0,0,0"/>
		<path class="st1" d="M-72,92.1c-0.1,20.6,16.5,37.3,37.1,37.4c0,0,0,0,0,0c20.6-0.1,37.2-16.9,37.1-37.4c0,0,0,0,0,0"/>
		<path class="st1" d="M2.1,92.1c0,20.5,16.6,37.1,37,37.1c20.5,0,37.1-16.6,37.1-37c0,0,0,0,0,0"/>
		<path class="st1" d="M-34.9,133c-0.1,20.6,16.5,37.3,37.1,37.4c20.6-0.1,37.2-16.9,37.1-37.4"/>
		<path class="st1" d="M39.2,133c0,20.5,16.6,37.1,37,37.1c20.5,0,37.1-16.6,37.1-37c0,0,0,0,0,0"/>
		<path class="st1" d="M-72,173.9c-0.1,20.6,16.5,37.3,37.1,37.4c0,0,0,0,0,0c20.6-0.1,37.2-16.9,37.1-37.4c0,0,0,0,0,0"/>
		<path class="st1" d="M2.1,173.9c0,20.5,16.6,37.1,37,37.1c20.5,0,37.1-16.6,37.1-37c0,0,0,0,0,0"/>
		<path class="st1" d="M76.2,173.9c-0.3,20.5,16,37.3,36.5,37.7c20.5,0.3,37.3-16,37.7-36.5c0-0.4,0-0.8,0-1.2"/>
		<path class="st1" d="M-34.9,214.8c-0.1,20.6,16.5,37.3,37.1,37.4c0,0,0,0,0,0c20.6-0.1,37.2-16.9,37.1-37.4c0,0,0,0,0,0"/>
		<path class="st1" d="M39.2,214.8c0,20.5,16.6,37.1,37,37.1c20.5,0,37.1-16.6,37.1-37c0,0,0,0,0,0"/>
		<path class="st1" d="M113.3,214.8c-0.3,20.5,16,37.3,36.5,37.7c20.5,0.3,37.3-16,37.7-36.5c0-0.4,0-0.8,0-1.2"/>
	</g>
</g>
<ellipse class="st2" cx="55.3" cy="27.9" rx="13.9" ry="23.9"/>
<line class="st2" x1="55.3" y1="33.8" x2="55.3" y2="93.9"/>
<ellipse class="st2" cx="55.3" cy="99.3" rx="13.9" ry="23.9"/>
<line class="st2" x1="55.3" y1="105.2" x2="55.3" y2="165.3"/>
<ellipse class="st2" cx="55.3" cy="170.8" rx="13.9" ry="23.9"/>
<line class="st2" x1="55.3" y1="176.6" x2="55.3" y2="236.8"/>
<ellipse class="st2" cx="55.3" cy="242.2" rx="13.9" ry="23.9"/>
<line class="st2" x1="55.3" y1="248.1" x2="55.3" y2="308.2"/>
<ellipse class="st2" cx="55.3" cy="313.6" rx="13.9" ry="23.9"/>
<line class="st2" x1="55.3" y1="319.5" x2="55.3" y2="379.6"/>
<ellipse class="st2" cx="55.3" cy="385" rx="13.9" ry="23.9"/>
<line class="st2" x1="55.3" y1="390.9" x2="55.3" y2="451"/>
<ellipse class="st2" cx="55.3" cy="456.5" rx="13.9" ry="23.9"/>
<line class="st2" x1="55.3" y1="462.4" x2="55.3" y2="522.5"/>
<ellipse class="st2" cx="55.3" cy="527.9" rx="13.9" ry="23.9"/>
<line class="st2" x1="55.3" y1="533.8" x2="55.3" y2="593.9"/>
<ellipse class="st2" cx="55.3" cy="599.3" rx="13.9" ry="23.9"/>
<line class="st2" x1="55.3" y1="605.2" x2="55.3" y2="665.3"/>
<ellipse class="st2" cx="55.3" cy="670.8" rx="13.9" ry="23.9"/>
<line class="st2" x1="55.3" y1="676.6" x2="55.3" y2="736.8"/>
<path class="st3" d="M68.1,651.8H42.5c-10.6,0-20.4,5.7-25.7,14.8L4,688.9c-5.3,9.2-5.3,20.5,0,29.6l12.8,22.2
	c5.3,9.2,15.1,14.8,25.7,14.8h25.6c10.6,0,20.4-5.7,25.7-14.8l12.8-22.2c5.3-9.2,5.3-20.5,0-29.6l-12.8-22.2
	C88.5,657.5,78.7,651.9,68.1,651.8z"/>
<path class="st3" d="M105.9,850.4c0,110.3-22.7,199.6-50.7,199.6S4.6,960.7,4.6,850.4s22.7-109.7,50.7-109.7
	S105.9,740.1,105.9,850.4z"/>
<path class="st1" d="M42.5,745.5c-7,0-13.5-3.8-17-9.8l-12.8-22.2c-3.5-6.1-3.5-13.6,0-19.6l12.8-22.2c3.5-6.1,10-9.8,17-9.8h25.7
	c7,0,13.5,3.8,17,9.8l12.8,22.2c3.5,6.1,3.5,13.6,0,19.6l-12.8,22.2c-3.5,6.1-10,9.8-17,9.8H42.5z"/>
<g>
	<defs>
		<path id="SVGID_3_" d="M55.3,1040c-3.7,0-15.5-9.2-26.1-50.9c-9.4-36.9-14.5-86.2-14.5-138.7c0-47.5,4.2-77,12.9-90.3
			c5.9-9,13.3-9.4,26.9-9.4h1.6c13.7,0,21,0.4,26.9,9.4c8.7,13.3,12.9,42.9,12.9,90.3c0,52.5-5.2,101.8-14.5,138.7
			C70.8,1030.9,59,1040,55.3,1040z"/>
	</defs>
	<clipPath id="SVGID_4_">
		<use xlink:href="#SVGID_3_"  style="overflow:visible;"/>
	</clipPath>
	<g class="st4">
		<line class="st1" x1="-145.9" y1="676.6" x2="197.3" y2="881.6"/>
		<line class="st1" x1="-145.9" y1="731.9" x2="197.3" y2="936.8"/>
		<line class="st1" x1="-145.9" y1="787.1" x2="197.3" y2="992"/>
		<line class="st1" x1="-145.9" y1="842.3" x2="197.3" y2="1047.2"/>
		<line class="st1" x1="-145.9" y1="897.5" x2="197.3" y2="1102.5"/>
		<line class="st1" x1="-145.9" y1="952.8" x2="197.3" y2="1157.7"/>
		<line class="st1" x1="-145.9" y1="1008" x2="197.3" y2="1212.9"/>
		<line class="st1" x1="197.3" y1="676.6" x2="-145.9" y2="881.6"/>
		<line class="st1" x1="197.3" y1="731.9" x2="-145.9" y2="936.8"/>
		<line class="st1" x1="197.3" y1="787.1" x2="-145.9" y2="992"/>
		<line class="st1" x1="197.3" y1="842.3" x2="-145.9" y2="1047.2"/>
		<line class="st1" x1="197.3" y1="897.5" x2="-145.9" y2="1102.5"/>
		<line class="st1" x1="197.3" y1="952.8" x2="-145.9" y2="1157.7"/>
		<line class="st1" x1="197.3" y1="1008" x2="-145.9" y2="1212.9"/>
	</g>
</g>
<path class="st1" d="M55.3,1040c-3.7,0-15.5-9.2-26.1-50.9c-9.4-36.9-14.5-86.2-14.5-138.7c0-47.5,4.2-77,12.9-90.3
	c5.9-9,13.3-9.4,26.9-9.4h1.6c13.7,0,21,0.4,26.9,9.4c8.7,13.3,12.9,42.9,12.9,90.3c0,52.5-5.2,101.8-14.5,138.7
	C70.8,1030.9,59,1040,55.3,1040z"/>
</svg>
