<svg id="Layer_1" data-name="Layer 1" xmlns="http://www.w3.org/2000/svg" xmlns:xlink="http://www.w3.org/1999/xlink" viewBox="0 0 949.5 1142.38"><defs><style>.cls-1,.cls-14,.cls-15,.cls-3{fill:none;}.cls-2{fill:#564232;}.cls-13,.cls-14,.cls-15,.cls-3{stroke:#f3efd8;stroke-linecap:round;stroke-linejoin:round;stroke-width:8px;}.cls-4{fill:#896a55;}.cls-5{fill:#f9f9fa;}.cls-6{fill:#f3efd8;}.cls-7{clip-path:url(#clip-path);}.cls-8{fill:#fff;}.cls-9{fill:#de5562;}.cls-10{fill:#4ba054;}.cls-11{fill:#423126;}.cls-12,.cls-13{fill:#fffef7;}.cls-14{stroke-dasharray:5.16 20.66;}.cls-15{stroke-dasharray:5 20;}</style><clipPath id="clip-path"><rect class="cls-1" x="102.62" y="175.69" width="753.12" height="245.46"/></clipPath></defs><path class="cls-2" d="M109.82,931v94.33s24.89-4.27,38.59,0c28.68,8.92,35.64,31.26,62.84,47.91,19.47,11.91,55.42,15.3,94-11.51,17.72-12.31,20.53-6.77,20.53-6.77s12.78,49.7,65.84,49.9c40.24.15,59.61,2.25,87.1,31.55h1.73c27.5-29.3,46.87-31.4,87.11-31.55,53.06-.2,65.83-49.9,65.83-49.9s2.82-5.54,20.53,6.77c38.57,26.81,74.52,23.42,94,11.51,27.2-16.65,34.16-39,62.84-47.91,13.7-4.27,38.59,0,38.59,0V931Z"/><path class="cls-3" d="M479.57,1123c-27.87-26.61-51.12-28.07-87.93-28.21-44.44-.17-55.74-40.71-56.2-42.43l-.27-1-.49-1c-1.65-3.25-5.69-6.71-12.09-6.71-6.11,0-13.44,3.11-23.06,9.8-17.55,12.2-36.09,18.65-53.62,18.65-11.12,0-21.58-2.65-29.44-7.46-10.51-6.44-17.89-14-25-21.33-10.41-10.68-21.17-21.72-40.06-27.6-5-1.56-11.42-2.35-19.06-2.35-4.41,0-8.75.26-12.5.59V941h719.5v73c-3.76-.33-8.09-.59-12.5-.59-7.65,0-14.06.79-19.06,2.35-18.9,5.88-29.65,16.92-40.06,27.6-7.14,7.32-14.52,14.89-25,21.33-7.87,4.81-18.32,7.46-29.44,7.46-12.22,0-31.45-3.24-53.62-18.65-9.62-6.69-17-9.8-23.06-9.8-6.4,0-10.44,3.46-12.09,6.71l-.5,1-.27,1.06c-.45,1.68-11.76,42.22-56.19,42.39C530.69,1095,507.44,1096.43,479.57,1123Z"/><rect class="cls-4" x="128.36" y="35.83" width="164.69" height="190.15"/><rect class="cls-3" x="125.63" y="58.56" width="170.15" height="144.69" transform="translate(341.61 -79.8) rotate(90)"/><path class="cls-5" d="M278.21,25.77h-135C123,25.77,106.66,40.21,106.66,58S123,90.28,143.19,90.28c15.23,0,28.27-8.23,33.76-19.92,5.48,11.69,18.53,19.92,33.75,19.92S239,82.05,244.46,70.36C250,82.05,263,90.28,278.21,90.28c20.18,0,36.54-14.44,36.54-32.25S298.39,25.77,278.21,25.77Z"/><path class="cls-6" d="M278.21,26.17c-11.85,0-23.7.22-35.56.76s-23.7,1.2-35.56,1.67-23.7.77-35.56.77c-5.92,0-11.85-.06-17.78-.18-3-.07-5.92-.09-8.89-.2-1.53-.08-2.86,0-4.24,0a14,14,0,0,0-2.05.12l-2,.21a37.33,37.33,0,0,0-15.4,5.79,30.41,30.41,0,0,0-10.73,12.56,26,26,0,0,0-1.43,4c-.19.67-.28,1.37-.43,2.06a11.11,11.11,0,0,0-.31,2.08l-.17,2.11c0,.7,0,1.41,0,2.12l0,1.06c0,.35.1.69.15,1l.34,2.1A28.89,28.89,0,0,0,117,78.77a33.35,33.35,0,0,0,6.85,5.12,34.26,34.26,0,0,0,3.87,1.84c.66.26,1.31.56,2,.78l2.05.63c.34.1.68.21,1,.3l1,.22,2.1.43c.71.1,1.42.16,2.13.24a18.94,18.94,0,0,0,2.12.18,40.8,40.8,0,0,0,8.49-.5A36.78,36.78,0,0,0,164,81.57a31.08,31.08,0,0,0,10.17-12.51,3,3,0,0,1,3.95-1.55,3,3,0,0,1,1.48,1.39l.09.16a28.73,28.73,0,0,0,5.49,7.46,32.87,32.87,0,0,0,7.47,5.56,36.85,36.85,0,0,0,18,4.38,36.48,36.48,0,0,0,17.75-4.88,30.1,30.1,0,0,0,12.14-13,4.28,4.28,0,0,1,5.68-2.05,4.22,4.22,0,0,1,2,2l0,0a29.57,29.57,0,0,0,10.74,12A35.27,35.27,0,0,0,274.65,86a36.4,36.4,0,0,0,8.41,0,38.13,38.13,0,0,0,8.22-1.82,36.65,36.65,0,0,0,3.88-1.64c.62-.32,1.28-.59,1.89-.94l1.81-1.09A31.55,31.55,0,0,0,305.29,75l.73-.77c.22-.27.42-.56.64-.84.42-.56.88-1.11,1.28-1.69A29.63,29.63,0,0,0,310,68a30.72,30.72,0,0,0,1.56-4c.18-.69.32-1.39.49-2.09.08-.35.18-.7.23-1l.12-1.07A27,27,0,0,0,309,42.93a34.35,34.35,0,0,0-5.57-7.08A38.81,38.81,0,0,0,299.84,33c-.64-.43-1.23-.92-1.89-1.29l-2-1.13A38.56,38.56,0,0,0,278.21,26.17Zm0-.8a43.4,43.4,0,0,1,18.32,4,41.35,41.35,0,0,1,8.06,5.07,36.63,36.63,0,0,1,6.56,7.05c.5.64.86,1.38,1.29,2.06a16,16,0,0,1,1.18,2.15c.35.74.71,1.48,1,2.23l.81,2.34a30.47,30.47,0,0,1,1.38,9.84l0,1.27c0,.42-.09.83-.13,1.25-.11.83-.2,1.68-.32,2.51A34.07,34.07,0,0,1,315,70.07a35.36,35.36,0,0,1-2.08,4.67c-.41.74-.89,1.45-1.33,2.18-.23.36-.45.72-.69,1.08l-.78,1A39,39,0,0,1,294,91.21a44.35,44.35,0,0,1-20.1,3,42.57,42.57,0,0,1-19.44-6.47,37.22,37.22,0,0,1-13.84-15.52h7.74a37.7,37.7,0,0,1-15.83,16.5,44.12,44.12,0,0,1-43.31-.5,39.12,39.12,0,0,1-8.79-7.07,35,35,0,0,1-6.21-9.45h5.52a36.13,36.13,0,0,1-12.91,14,41.46,41.46,0,0,1-17.6,6.1,44.23,44.23,0,0,1-18.27-1.85,39.45,39.45,0,0,1-15.65-9.36,33.56,33.56,0,0,1-9.13-15.79,31.09,31.09,0,0,1,1.22-18.34,35.23,35.23,0,0,1,11.06-15A42.1,42.1,0,0,1,135.5,23.5l2.35-.39a18.72,18.72,0,0,1,2.37-.3c1.58-.12,3.21-.25,4.64-.26,3-.12,5.93-.13,8.89-.2,5.93-.13,11.86-.2,17.78-.18q17.79,0,35.56.77c11.86.47,23.71,1.19,35.56,1.67S266.36,25.38,278.21,25.37Z"/><rect class="cls-4" x="663.73" y="35.83" width="164.69" height="190.15"/><rect class="cls-3" x="660.99" y="58.56" width="170.15" height="144.69" transform="translate(876.97 -615.17) rotate(90)"/><path class="cls-5" d="M813.58,25.77h-135C658.38,25.77,642,40.21,642,58s16.35,32.25,36.53,32.25c15.23,0,28.27-8.23,33.76-19.92,5.48,11.69,18.52,19.92,33.75,19.92s28.27-8.23,33.76-19.92c5.48,11.69,18.52,19.92,33.75,19.92,20.18,0,36.54-14.44,36.54-32.25S833.76,25.77,813.58,25.77Z"/><path class="cls-6" d="M813.58,26.17c-11.85,0-23.71.28-35.56.82s-23.71,1.21-35.56,1.75c-5.93.31-11.85.46-17.78.7s-11.85.3-17.78.37L689.12,30l-8.89.06h-1.67l-.49,0-2,.1a13.27,13.27,0,0,0-2,.19l-2,.26a36.21,36.21,0,0,0-14.48,6A28.69,28.69,0,0,0,648,48.55a25.2,25.2,0,0,0-1.53,15.08,27.9,27.9,0,0,0,7.52,13.54c7.5,7.64,18.94,11.36,30,10.23A36.76,36.76,0,0,0,699.7,82,31.19,31.19,0,0,0,711,69.74l0,0A1.44,1.44,0,0,1,713,69a1.49,1.49,0,0,1,.68.7,30.45,30.45,0,0,0,5.46,8.19,34.17,34.17,0,0,0,7.81,6.13A37.13,37.13,0,0,0,746.07,89a40.09,40.09,0,0,0,9.83-1.48,36,36,0,0,0,9-4,31.37,31.37,0,0,0,12.5-14.27,2.62,2.62,0,0,1,4.73-.2l.11.2A31.1,31.1,0,0,0,793.9,81.33,36.73,36.73,0,0,0,810,86.5a37.33,37.33,0,0,0,20.67-3.79c.63-.33,1.29-.61,1.89-1l1.81-1.12a32.21,32.21,0,0,0,6.43-5.5l.73-.78c.23-.28.43-.56.65-.84.42-.57.87-1.12,1.27-1.71a28.7,28.7,0,0,0,2.07-3.72,32.53,32.53,0,0,0,1.56-4c.17-.69.32-1.39.48-2.09.08-.36.18-.7.23-1.06l.12-1.07a27.22,27.22,0,0,0-3.5-17,34.26,34.26,0,0,0-5.59-7.08,39.05,39.05,0,0,0-3.55-2.87c-.64-.42-1.23-.91-1.9-1.29l-2-1.13A38.53,38.53,0,0,0,813.58,26.17Zm0-.8a43.48,43.48,0,0,1,18.3,4.09,41.94,41.94,0,0,1,8,5.06,36.53,36.53,0,0,1,6.54,7c.5.64.85,1.37,1.29,2.06a15.27,15.27,0,0,1,1.17,2.14c.35.74.71,1.47,1,2.23l.8,2.33a30.07,30.07,0,0,1,1.37,9.82l0,1.26c0,.42-.09.83-.13,1.25-.11.83-.2,1.67-.33,2.5A33,33,0,0,1,850.27,70a33.8,33.8,0,0,1-2.09,4.64c-.41.74-.89,1.44-1.33,2.16-.23.36-.45.73-.69,1.08l-.78,1a38.2,38.2,0,0,1-16.15,12,43.66,43.66,0,0,1-19.94,2.71,41.35,41.35,0,0,1-19-6.77A35.92,35.92,0,0,1,777.41,71.5h4.84a36.39,36.39,0,0,1-15.47,15.27,43.62,43.62,0,0,1-41.09-.58,37.18,37.18,0,0,1-8.45-6.48A33.43,33.43,0,0,1,711,71h2.64A36.14,36.14,0,0,1,701.86,85.2a41.6,41.6,0,0,1-17.21,7.16,46.33,46.33,0,0,1-9.42.58,21,21,0,0,1-2.37-.19c-.79-.08-1.58-.15-2.37-.26L668.15,92,667,91.79c-.39-.1-.77-.22-1.15-.33l-2.3-.68c-.76-.25-1.49-.58-2.24-.86a39.4,39.4,0,0,1-4.37-2,38.47,38.47,0,0,1-7.84-5.73,34.58,34.58,0,0,1-10-16.84,32.89,32.89,0,0,1,1.45-19.8,36.85,36.85,0,0,1,12.1-15.61,43.26,43.26,0,0,1,18-7.74l2.43-.33a22.36,22.36,0,0,1,2.44-.23l2.45-.1c.42,0,.81,0,1.17,0h1.11l8.89.05,17.78.19c5.93.07,11.85.21,17.78.38s11.85.39,17.78.7c11.85.53,23.71,1.25,35.56,1.74S801.73,25.33,813.58,25.37Z"/><path class="cls-2" d="M93,430.85s92.49,218.9,107.26,539.54H751.17c14.77-320.64,107.25-539.54,107.25-539.54Z"/><path class="cls-3" d="M843.7,440.85c-8.36,21.92-25.15,69-43,137-22.46,85.3-50.71,220.3-59,382.56H209.76c-8.31-162.26-36.55-297.26-59-382.56-17.89-67.94-34.68-115.06-43-137"/><rect class="cls-2" x="92.98" y="174" width="770.8" height="201.08"/><rect class="cls-3" x="387.85" y="-100.87" width="181.08" height="750.8" transform="translate(752.92 -203.85) rotate(90)"/><g class="cls-7"><path class="cls-3" d="M-8.57,133.09a37.25,37.25,0,0,0,37.06,37.43,37.25,37.25,0,0,0,37.06-37.43"/><path class="cls-3" d="M65.55,133.09A37.25,37.25,0,0,0,28.49,95.65,37.25,37.25,0,0,0-8.57,133.09"/><path class="cls-3" d="M65.55,133.09a37.07,37.07,0,1,0,74.13,0"/><path class="cls-3" d="M139.68,133.09a37.07,37.07,0,1,0-74.13,0"/><path class="cls-3" d="M139.68,133.09a37.06,37.06,0,1,0,74.12,0"/><path class="cls-3" d="M213.8,133.09a37.06,37.06,0,1,0-74.12,0"/><path class="cls-3" d="M287.93,133.09a37.07,37.07,0,1,0-74.13,0"/><path class="cls-3" d="M213.8,133.09a37.07,37.07,0,1,0,74.13,0"/><path class="cls-3" d="M362.05,133.09a37.06,37.06,0,1,0-74.12,0"/><path class="cls-3" d="M287.93,133.09a37.06,37.06,0,1,0,74.12,0"/><path class="cls-3" d="M362.05,133.09a37.06,37.06,0,1,0,74.12,0"/><path class="cls-3" d="M-45.63,174A37.25,37.25,0,0,0-8.57,211.43,37.25,37.25,0,0,0,28.49,174"/><path class="cls-3" d="M28.49,174a37.07,37.07,0,1,0,74.13,0"/><path class="cls-3" d="M102.62,174a37.06,37.06,0,1,0,74.12,0"/><path class="cls-3" d="M176.74,174a37.06,37.06,0,1,0,74.12,0"/><path class="cls-3" d="M250.86,174A37.07,37.07,0,1,0,325,174"/><path class="cls-3" d="M325,174a37.06,37.06,0,1,0,74.12,0"/><path class="cls-3" d="M399.11,174a37.06,37.06,0,1,0,74.12,0"/><path class="cls-3" d="M-8.57,214.91a37.25,37.25,0,0,0,37.06,37.43,37.25,37.25,0,0,0,37.06-37.43"/><path class="cls-3" d="M65.55,214.91a37.07,37.07,0,1,0,74.13,0"/><path class="cls-3" d="M139.68,214.91a37.06,37.06,0,1,0,74.12,0"/><path class="cls-3" d="M213.8,214.91a37.07,37.07,0,1,0,74.13,0"/><path class="cls-3" d="M287.93,214.91a37.06,37.06,0,1,0,74.12,0"/><path class="cls-3" d="M362.05,214.91a37.06,37.06,0,1,0,74.12,0"/><path class="cls-3" d="M436.17,214.91a37.07,37.07,0,1,0,74.13,0"/><path class="cls-3" d="M-45.63,255.82A37.25,37.25,0,0,0-8.57,293.25a37.25,37.25,0,0,0,37.06-37.43"/><path class="cls-3" d="M28.49,255.82a37.07,37.07,0,1,0,74.13,0"/><path class="cls-3" d="M102.62,255.82a37.06,37.06,0,1,0,74.12,0"/><path class="cls-3" d="M176.74,255.82a37.06,37.06,0,1,0,74.12,0"/><path class="cls-3" d="M250.86,255.82a37.07,37.07,0,1,0,74.13,0"/><path class="cls-3" d="M325,255.82a37.06,37.06,0,1,0,74.12,0"/><path class="cls-3" d="M399.11,255.82a37.06,37.06,0,1,0,74.12,0"/><path class="cls-3" d="M473.23,255.82a37.07,37.07,0,1,0,74.13,0"/><path class="cls-3" d="M-8.57,296.73a37.25,37.25,0,0,0,37.06,37.43,37.25,37.25,0,0,0,37.07-37.43"/><path class="cls-3" d="M65.56,296.73a37.06,37.06,0,1,0,74.12,0"/><path class="cls-3" d="M139.68,296.73a37.06,37.06,0,1,0,74.12,0"/><path class="cls-3" d="M213.8,296.73a37.07,37.07,0,1,0,74.13,0"/><path class="cls-3" d="M287.93,296.73a37.06,37.06,0,1,0,74.12,0"/><path class="cls-3" d="M362.05,296.73a37.06,37.06,0,1,0,74.12,0"/><path class="cls-3" d="M436.17,296.73a37.07,37.07,0,1,0,74.13,0"/><path class="cls-3" d="M510.3,296.73a37.06,37.06,0,1,0,74.12,0"/><path class="cls-3" d="M-45.63,337.64A37.25,37.25,0,0,0-8.57,375.07a37.25,37.25,0,0,0,37.06-37.43"/><path class="cls-3" d="M28.49,337.64a37.07,37.07,0,1,0,74.13,0"/><path class="cls-3" d="M102.62,337.64a37.06,37.06,0,1,0,74.12,0"/><path class="cls-3" d="M176.74,337.64a37.06,37.06,0,1,0,74.12,0"/><path class="cls-3" d="M250.86,337.64a37.07,37.07,0,1,0,74.13,0"/><path class="cls-3" d="M325,337.64a37.06,37.06,0,1,0,74.12,0"/><path class="cls-3" d="M399.11,337.64a37.06,37.06,0,1,0,74.12,0"/><path class="cls-3" d="M473.23,337.64a37.07,37.07,0,1,0,74.13,0"/><path class="cls-3" d="M547.36,337.64a37.06,37.06,0,1,0,74.12,0"/><path class="cls-3" d="M-8.57,378.55A37.25,37.25,0,0,0,28.49,416a37.26,37.26,0,0,0,37.07-37.44"/><path class="cls-3" d="M65.56,378.55a37.06,37.06,0,1,0,74.12,0"/><path class="cls-3" d="M139.68,378.55a37.06,37.06,0,1,0,74.12,0"/><path class="cls-3" d="M213.8,378.55a37.07,37.07,0,1,0,74.13,0"/><path class="cls-3" d="M287.93,378.55a37.06,37.06,0,1,0,74.12,0"/><path class="cls-3" d="M362.05,378.55a37.06,37.06,0,1,0,74.12,0"/><path class="cls-3" d="M436.17,378.55a37.07,37.07,0,1,0,74.13,0"/><path class="cls-3" d="M510.3,378.55a37.06,37.06,0,1,0,74.12,0"/><path class="cls-3" d="M584.42,378.55a37.06,37.06,0,1,0,74.12,0"/><path class="cls-3" d="M-45.63,419.46A37.25,37.25,0,0,0-8.57,456.9a37.25,37.25,0,0,0,37.06-37.44"/><path class="cls-3" d="M28.49,419.46a37.07,37.07,0,1,0,74.13,0"/><path class="cls-3" d="M102.62,419.46a37.06,37.06,0,1,0,74.12,0"/><path class="cls-3" d="M176.74,419.46a37.06,37.06,0,1,0,74.12,0"/><path class="cls-3" d="M250.86,419.46a37.07,37.07,0,1,0,74.13,0"/><path class="cls-3" d="M325,419.46a37.06,37.06,0,1,0,74.12,0"/><path class="cls-3" d="M399.11,419.46a37.06,37.06,0,1,0,74.12,0"/><path class="cls-3" d="M473.23,419.46a37.07,37.07,0,1,0,74.13,0"/><path class="cls-3" d="M547.36,419.46a37.06,37.06,0,1,0,74.12,0"/><path class="cls-3" d="M621.48,419.46a37.06,37.06,0,1,0,74.12,0"/><path class="cls-3" d="M-8.57,460.37a37.25,37.25,0,0,0,37.06,37.44,37.26,37.26,0,0,0,37.07-37.44"/><path class="cls-3" d="M65.56,460.37a37.06,37.06,0,1,0,74.12,0"/><path class="cls-3" d="M139.68,460.37a37.06,37.06,0,1,0,74.12,0"/><path class="cls-3" d="M213.8,460.37a37.07,37.07,0,1,0,74.13,0"/><path class="cls-3" d="M287.93,460.37a37.06,37.06,0,1,0,74.12,0"/><path class="cls-3" d="M362.05,460.37a37.06,37.06,0,1,0,74.12,0"/><path class="cls-3" d="M436.17,460.37a37.07,37.07,0,1,0,74.13,0"/><path class="cls-3" d="M510.3,460.37a37.06,37.06,0,1,0,74.12,0"/><path class="cls-3" d="M584.42,460.37a37.06,37.06,0,1,0,74.12,0"/><path class="cls-3" d="M658.54,460.37a37.07,37.07,0,1,0,74.13,0"/><path class="cls-3" d="M436.17,133.09a37.06,37.06,0,1,0-74.12,0"/><path class="cls-3" d="M294.17,133.09a37.07,37.07,0,1,0,74.13,0"/><path class="cls-3" d="M368.3,133.09a37.06,37.06,0,1,0,74.12,0"/><path class="cls-3" d="M442.42,133.09a37.06,37.06,0,1,0,74.12,0"/><path class="cls-3" d="M516.54,133.09a37.07,37.07,0,1,0,74.13,0"/><path class="cls-3" d="M590.67,133.09a37.06,37.06,0,1,0,74.12,0"/><path class="cls-3" d="M664.79,133.09a37.06,37.06,0,1,0,74.12,0"/><path class="cls-3" d="M738.91,133.09a37.07,37.07,0,1,0,74.13,0"/><path class="cls-3" d="M813,133.09a37.06,37.06,0,1,0,74.12,0"/><path class="cls-3" d="M887.16,133.09a37.07,37.07,0,1,0,74.13,0"/><path class="cls-3" d="M331.24,174a37.06,37.06,0,1,0,74.12,0"/><path class="cls-3" d="M405.36,174a37.06,37.06,0,1,0,74.12,0"/><path class="cls-3" d="M479.48,174a37.07,37.07,0,1,0,74.13,0"/><path class="cls-3" d="M553.61,174a37.06,37.06,0,1,0,74.12,0"/><path class="cls-3" d="M627.73,174a37.06,37.06,0,1,0,74.12,0"/><path class="cls-3" d="M701.85,174A37.07,37.07,0,1,0,776,174"/><path class="cls-3" d="M776,174a37.06,37.06,0,1,0,74.12,0"/><path class="cls-3" d="M850.1,174a37.06,37.06,0,1,0,74.12,0"/><path class="cls-3" d="M924.22,174a37.07,37.07,0,1,0,74.13,0"/><path class="cls-3" d="M368.3,214.91a37.06,37.06,0,1,0,74.12,0"/><path class="cls-3" d="M442.42,214.91a37.06,37.06,0,1,0,74.12,0"/><path class="cls-3" d="M516.54,214.91a37.07,37.07,0,1,0,74.13,0"/><path class="cls-3" d="M590.67,214.91a37.06,37.06,0,1,0,74.12,0"/><path class="cls-3" d="M664.79,214.91a37.06,37.06,0,1,0,74.12,0"/><path class="cls-3" d="M738.91,214.91a37.07,37.07,0,1,0,74.13,0"/><path class="cls-3" d="M813,214.91a37.06,37.06,0,1,0,74.12,0"/><path class="cls-3" d="M887.16,214.91a37.07,37.07,0,1,0,74.13,0"/><path class="cls-3" d="M405.36,255.82a37.06,37.06,0,1,0,74.12,0"/><path class="cls-3" d="M479.48,255.82a37.07,37.07,0,1,0,74.13,0"/><path class="cls-3" d="M553.61,255.82a37.06,37.06,0,1,0,74.12,0"/><path class="cls-3" d="M627.73,255.82a37.06,37.06,0,1,0,74.12,0"/><path class="cls-3" d="M701.85,255.82a37.07,37.07,0,1,0,74.13,0"/><path class="cls-3" d="M776,255.82a37.06,37.06,0,1,0,74.12,0"/><path class="cls-3" d="M850.1,255.82a37.06,37.06,0,1,0,74.12,0"/><path class="cls-3" d="M924.22,255.82a37.07,37.07,0,1,0,74.13,0"/><path class="cls-3" d="M442.42,296.73a37.06,37.06,0,1,0,74.12,0"/><path class="cls-3" d="M516.54,296.73a37.07,37.07,0,1,0,74.13,0"/><path class="cls-3" d="M590.67,296.73a37.06,37.06,0,1,0,74.12,0"/><path class="cls-3" d="M664.79,296.73a37.06,37.06,0,1,0,74.12,0"/><path class="cls-3" d="M738.91,296.73a37.07,37.07,0,1,0,74.13,0"/><path class="cls-3" d="M813,296.73a37.06,37.06,0,1,0,74.12,0"/><path class="cls-3" d="M887.16,296.73a37.07,37.07,0,1,0,74.13,0"/><path class="cls-3" d="M479.48,337.64a37.07,37.07,0,1,0,74.13,0"/><path class="cls-3" d="M553.61,337.64a37.06,37.06,0,1,0,74.12,0"/><path class="cls-3" d="M627.73,337.64a37.06,37.06,0,1,0,74.12,0"/><path class="cls-3" d="M701.85,337.64a37.07,37.07,0,1,0,74.13,0"/><path class="cls-3" d="M776,337.64a37.06,37.06,0,1,0,74.12,0"/><path class="cls-3" d="M850.1,337.64a37.06,37.06,0,1,0,74.12,0"/><path class="cls-3" d="M924.22,337.64a37.07,37.07,0,1,0,74.13,0"/><path class="cls-3" d="M516.54,378.55a37.07,37.07,0,1,0,74.13,0"/><path class="cls-3" d="M590.67,378.55a37.06,37.06,0,1,0,74.12,0"/><path class="cls-3" d="M664.79,378.55a37.07,37.07,0,1,0,74.13,0"/><path class="cls-3" d="M738.92,378.55a37.06,37.06,0,1,0,74.12,0"/><path class="cls-3" d="M813,378.55a37.06,37.06,0,1,0,74.12,0"/><path class="cls-3" d="M887.16,378.55a37.07,37.07,0,1,0,74.13,0"/><path class="cls-3" d="M553.61,419.46a37.06,37.06,0,1,0,74.12,0"/><path class="cls-3" d="M627.73,419.46a37.06,37.06,0,1,0,74.12,0"/><path class="cls-3" d="M701.85,419.46a37.07,37.07,0,1,0,74.13,0"/><path class="cls-3" d="M776,419.46a37.06,37.06,0,1,0,74.12,0"/><path class="cls-3" d="M850.1,419.46a37.06,37.06,0,1,0,74.12,0"/><path class="cls-3" d="M924.22,419.46a37.07,37.07,0,1,0,74.13,0"/><path class="cls-3" d="M590.67,460.37a37.06,37.06,0,1,0,74.12,0"/><path class="cls-3" d="M664.79,460.37a37.07,37.07,0,1,0,74.13,0"/><path class="cls-3" d="M738.92,460.37a37.06,37.06,0,1,0,74.12,0"/><path class="cls-3" d="M813,460.37a37.06,37.06,0,1,0,74.12,0"/><path class="cls-3" d="M887.16,460.37a37.07,37.07,0,1,0,74.13,0"/><path class="cls-3" d="M182.85,419.46a37.07,37.07,0,1,0,74.13,0"/><path class="cls-3" d="M257,419.46a37.06,37.06,0,1,0,74.12,0"/><path class="cls-3" d="M331.1,419.46a37.06,37.06,0,1,0,74.12,0"/><path class="cls-3" d="M405.22,419.46a37.07,37.07,0,1,0,74.13,0"/><path class="cls-3" d="M479.35,419.46a37.06,37.06,0,1,0,74.12,0"/><path class="cls-3" d="M219.91,460.37a37.07,37.07,0,1,0,74.13,0"/><path class="cls-3" d="M294,460.37a37.06,37.06,0,1,0,74.12,0"/><path class="cls-3" d="M368.16,460.37a37.06,37.06,0,1,0,74.12,0"/><path class="cls-3" d="M442.28,460.37a37.07,37.07,0,1,0,74.13,0"/><path class="cls-3" d="M516.41,460.37a37.06,37.06,0,1,0,74.12,0"/></g><path class="cls-8" d="M88.13,161.55v0c-.26,0-.52,0-.78,0a15.64,15.64,0,0,0-8.6,2.54,14.83,14.83,0,0,0-3.19,2.81,13.56,13.56,0,0,0-3.27,8.79c0,.2,0,.4,0,.6a13.33,13.33,0,0,0,2,6.5,15.24,15.24,0,0,0,13,7.05l.78,0v0h.8V161.55Z"/><polygon class="cls-8" points="102.73 173.47 88.93 173.47 88.93 176.28 100.43 176.28 102.73 173.47"/><polygon class="cls-8" points="197.72 161.55 195.65 164.09 193.35 166.9 187.99 173.47 185.69 176.28 180.39 182.79 174.64 189.84 198.81 189.84 198.81 182.79 198.81 176.28 198.81 173.47 198.81 166.9 198.81 164.09 198.81 161.55 197.72 161.55"/><polygon class="cls-8" points="88.93 161.55 88.93 164.09 88.93 166.9 88.93 173.47 88.93 176.28 88.93 182.79 88.93 189.84 89.38 189.84 95.13 182.79 100.43 176.28 102.73 173.47 108.09 166.9 110.39 164.09 112.46 161.55 88.93 161.55"/><polygon class="cls-8" points="143.54 161.55 141.47 164.09 139.17 166.9 133.81 173.47 131.51 176.28 126.21 182.79 120.45 189.84 143.56 189.84 149.31 182.79 154.62 176.28 156.91 173.47 162.27 166.9 164.57 164.09 166.64 161.55 143.54 161.55"/><polygon class="cls-9" points="112.46 161.55 110.39 164.09 108.09 166.9 102.73 173.47 100.43 176.28 95.13 182.79 89.38 189.84 120.45 189.84 126.21 182.79 131.51 176.28 133.81 173.47 139.17 166.9 141.47 164.09 143.54 161.55 112.46 161.55"/><polygon class="cls-10" points="166.64 161.55 164.57 164.09 162.27 166.9 156.91 173.47 154.62 176.28 149.31 182.79 143.56 189.84 174.64 189.84 180.39 182.79 185.69 176.28 187.99 173.47 193.35 166.9 195.65 164.09 197.72 161.55 166.64 161.55"/><polygon class="cls-8" points="212.61 173.47 198.81 173.47 198.81 176.28 210.31 176.28 212.61 173.47"/><polygon class="cls-8" points="307.6 161.55 305.53 164.09 303.23 166.9 297.87 173.47 295.57 176.28 290.27 182.79 284.52 189.84 308.69 189.84 308.69 182.79 308.69 176.28 308.69 173.47 308.69 166.9 308.69 164.09 308.69 161.55 307.6 161.55"/><polygon class="cls-8" points="198.81 161.55 198.81 164.09 198.81 166.9 198.81 173.47 198.81 176.28 198.81 182.79 198.81 189.84 199.26 189.84 205.01 182.79 210.31 176.28 212.61 173.47 217.97 166.9 220.27 164.09 222.34 161.55 198.81 161.55"/><polygon class="cls-8" points="253.42 161.55 251.35 164.09 249.05 166.9 243.69 173.47 241.39 176.28 236.09 182.79 230.34 189.84 253.44 189.84 259.19 182.79 264.5 176.28 266.79 173.47 272.15 166.9 274.45 164.09 276.52 161.55 253.42 161.55"/><polygon class="cls-9" points="222.34 161.55 220.27 164.09 217.97 166.9 212.61 173.47 210.31 176.28 205.01 182.79 199.26 189.84 230.34 189.84 236.09 182.79 241.39 176.28 243.69 173.47 249.05 166.9 251.35 164.09 253.42 161.55 222.34 161.55"/><polygon class="cls-10" points="276.52 161.55 274.45 164.09 272.15 166.9 266.79 173.47 264.5 176.28 259.19 182.79 253.44 189.84 284.52 189.84 290.27 182.79 295.57 176.28 297.87 173.47 303.23 166.9 305.53 164.09 307.6 161.55 276.52 161.55"/><polygon class="cls-8" points="322.49 173.47 308.69 173.47 308.69 176.28 320.2 176.28 322.49 173.47"/><polygon class="cls-8" points="417.48 161.55 415.41 164.09 413.11 166.9 407.75 173.47 405.46 176.28 400.15 182.79 394.4 189.84 418.57 189.84 418.57 182.79 418.57 176.28 418.57 173.47 418.57 166.9 418.57 164.09 418.57 161.55 417.48 161.55"/><polygon class="cls-8" points="308.69 161.55 308.69 164.09 308.69 166.9 308.69 173.47 308.69 176.28 308.69 182.79 308.69 189.84 309.14 189.84 314.89 182.79 320.2 176.28 322.49 173.47 327.85 166.9 330.15 164.09 332.22 161.55 308.69 161.55"/><polygon class="cls-8" points="363.3 161.55 361.23 164.09 358.93 166.9 353.57 173.47 351.27 176.28 345.97 182.79 340.22 189.84 363.32 189.84 369.07 182.79 374.38 176.28 376.68 173.47 382.03 166.9 384.33 164.09 386.4 161.55 363.3 161.55"/><polygon class="cls-9" points="332.22 161.55 330.15 164.09 327.85 166.9 322.49 173.47 320.2 176.28 314.89 182.79 309.14 189.84 340.22 189.84 345.97 182.79 351.27 176.28 353.57 173.47 358.93 166.9 361.23 164.09 363.3 161.55 332.22 161.55"/><polygon class="cls-10" points="386.4 161.55 384.33 164.09 382.03 166.9 376.68 173.47 374.38 176.28 369.07 182.79 363.32 189.84 394.4 189.84 400.15 182.79 405.46 176.28 407.75 173.47 413.11 166.9 415.41 164.09 417.48 161.55 386.4 161.55"/><polygon class="cls-8" points="432.37 173.47 418.57 173.47 418.57 176.28 430.08 176.28 432.37 173.47"/><polygon class="cls-8" points="527.36 161.55 525.29 164.09 522.99 166.9 517.63 173.47 515.34 176.28 510.03 182.79 504.28 189.84 528.45 189.84 528.45 182.79 528.45 176.28 528.45 173.47 528.45 166.9 528.45 164.09 528.45 161.55 527.36 161.55"/><polygon class="cls-8" points="418.57 161.55 418.57 164.09 418.57 166.9 418.57 173.47 418.57 176.28 418.57 182.79 418.57 189.84 419.02 189.84 424.77 182.79 430.08 176.28 432.37 173.47 437.73 166.9 440.03 164.09 442.1 161.55 418.57 161.55"/><polygon class="cls-8" points="473.18 161.55 471.11 164.09 468.81 166.9 463.45 173.47 461.15 176.28 455.85 182.79 450.1 189.84 473.2 189.84 478.95 182.79 484.26 176.28 486.56 173.47 491.91 166.9 494.21 164.09 496.28 161.55 473.18 161.55"/><polygon class="cls-9" points="442.1 161.55 440.03 164.09 437.73 166.9 432.37 173.47 430.08 176.28 424.77 182.79 419.02 189.84 450.1 189.84 455.85 182.79 461.15 176.28 463.45 173.47 468.81 166.9 471.11 164.09 473.18 161.55 442.1 161.55"/><polygon class="cls-10" points="496.28 161.55 494.21 164.09 491.91 166.9 486.56 173.47 484.26 176.28 478.95 182.79 473.2 189.84 504.28 189.84 510.03 182.79 515.34 176.28 517.63 173.47 522.99 166.9 525.29 164.09 527.36 161.55 496.28 161.55"/><polygon class="cls-8" points="542.25 173.47 528.45 173.47 528.45 176.28 539.96 176.28 542.25 173.47"/><polygon class="cls-8" points="637.24 161.55 635.17 164.09 632.87 166.9 627.51 173.47 625.22 176.28 619.91 182.79 614.16 189.84 638.33 189.84 638.33 182.79 638.33 176.28 638.33 173.47 638.33 166.9 638.33 164.09 638.33 161.55 637.24 161.55"/><polygon class="cls-8" points="528.45 161.55 528.45 164.09 528.45 166.9 528.45 173.47 528.45 176.28 528.45 182.79 528.45 189.84 528.9 189.84 534.65 182.79 539.96 176.28 542.25 173.47 547.61 166.9 549.91 164.09 551.98 161.55 528.45 161.55"/><polygon class="cls-8" points="583.06 161.55 580.99 164.09 578.69 166.9 573.33 173.47 571.04 176.28 565.73 182.79 559.98 189.84 583.08 189.84 588.83 182.79 594.14 176.28 596.44 173.47 601.79 166.9 604.09 164.09 606.16 161.55 583.06 161.55"/><polygon class="cls-9" points="551.98 161.55 549.91 164.09 547.61 166.9 542.25 173.47 539.96 176.28 534.65 182.79 528.9 189.84 559.98 189.84 565.73 182.79 571.04 176.28 573.33 173.47 578.69 166.9 580.99 164.09 583.06 161.55 551.98 161.55"/><polygon class="cls-10" points="606.16 161.55 604.09 164.09 601.79 166.9 596.44 173.47 594.14 176.28 588.83 182.79 583.08 189.84 614.16 189.84 619.91 182.79 625.22 176.28 627.51 173.47 632.87 166.9 635.17 164.09 637.24 161.55 606.16 161.55"/><polygon class="cls-8" points="652.14 173.47 638.33 173.47 638.33 176.28 649.84 176.28 652.14 173.47"/><polygon class="cls-8" points="747.12 161.55 745.05 164.09 742.75 166.9 737.4 173.47 735.1 176.28 729.79 182.79 724.04 189.84 748.22 189.84 748.22 182.79 748.22 176.28 748.22 173.47 748.22 166.9 748.22 164.09 748.22 161.55 747.12 161.55"/><polygon class="cls-8" points="638.33 161.55 638.33 164.09 638.33 166.9 638.33 173.47 638.33 176.28 638.33 182.79 638.33 189.84 638.78 189.84 644.53 182.79 649.84 176.28 652.14 173.47 657.49 166.9 659.79 164.09 661.86 161.55 638.33 161.55"/><polygon class="cls-8" points="692.94 161.55 690.87 164.09 688.57 166.9 683.21 173.47 680.92 176.28 675.61 182.79 669.86 189.84 692.96 189.84 698.71 182.79 704.02 176.28 706.32 173.47 711.67 166.9 713.97 164.09 716.04 161.55 692.94 161.55"/><polygon class="cls-9" points="661.86 161.55 659.79 164.09 657.49 166.9 652.14 173.47 649.84 176.28 644.53 182.79 638.78 189.84 669.86 189.84 675.61 182.79 680.92 176.28 683.21 173.47 688.57 166.9 690.87 164.09 692.94 161.55 661.86 161.55"/><polygon class="cls-10" points="716.04 161.55 713.97 164.09 711.67 166.9 706.32 173.47 704.02 176.28 698.71 182.79 692.96 189.84 724.04 189.84 729.79 182.79 735.1 176.28 737.4 173.47 742.75 166.9 745.05 164.09 747.12 161.55 716.04 161.55"/><polygon class="cls-8" points="762.02 173.47 748.22 173.47 748.22 176.28 759.72 176.28 762.02 173.47"/><polygon class="cls-8" points="857 161.55 854.93 164.09 852.63 166.9 847.28 173.47 844.98 176.28 839.67 182.79 833.92 189.84 858.1 189.84 858.1 182.79 858.1 176.28 858.1 173.47 858.1 166.9 858.1 164.09 858.1 161.55 857 161.55"/><polygon class="cls-8" points="748.22 161.55 748.22 164.09 748.22 166.9 748.22 173.47 748.22 176.28 748.22 182.79 748.22 189.84 748.66 189.84 754.41 182.79 759.72 176.28 762.02 173.47 767.37 166.9 769.67 164.09 771.74 161.55 748.22 161.55"/><polygon class="cls-8" points="802.82 161.55 800.75 164.09 798.45 166.9 793.1 173.47 790.8 176.28 785.49 182.79 779.74 189.84 802.84 189.84 808.6 182.79 813.9 176.28 816.2 173.47 821.56 166.9 823.85 164.09 825.93 161.55 802.82 161.55"/><polygon class="cls-9" points="771.74 161.55 769.67 164.09 767.37 166.9 762.02 173.47 759.72 176.28 754.41 182.79 748.66 189.84 779.74 189.84 785.49 182.79 790.8 176.28 793.1 173.47 798.45 166.9 800.75 164.09 802.82 161.55 771.74 161.55"/><polygon class="cls-10" points="825.93 161.55 823.85 164.09 821.56 166.9 816.2 173.47 813.9 176.28 808.6 182.79 802.84 189.84 833.92 189.84 839.67 182.79 844.98 176.28 847.28 173.47 852.63 166.9 854.93 164.09 857 161.55 825.93 161.55"/><path class="cls-8" d="M874.55,173.47a13.74,13.74,0,0,0-3.08-6.57,15.07,15.07,0,0,0-3.19-2.81,15.67,15.67,0,0,0-8.61-2.54c-.26,0-.52,0-.78,0v0h-.79v28.29h.79v0l.78,0a15.26,15.26,0,0,0,13-7.05,13.54,13.54,0,0,0,2-6.5c0-.2,0-.4,0-.6A13.57,13.57,0,0,0,874.55,173.47Z"/><polygon class="cls-4" points="665.09 240.88 662.07 237.33 662.07 208.08 637.22 208.08 573.56 133.15 482.03 25.42 390.5 133.15 326.84 208.08 301.99 208.08 301.99 237.33 298.97 240.88 301.99 240.88 301.99 386.04 662.07 386.04 662.07 240.88 665.09 240.88"/><polygon class="cls-3" points="311.99 376.04 311.99 218.08 331.46 218.08 482.03 40.87 632.59 218.08 652.07 218.08 652.07 376.04 311.99 376.04"/><circle class="cls-11" cx="478.39" cy="232.57" r="47.2"/><circle class="cls-3" cx="478.39" cy="232.57" r="68.61"/><path class="cls-12" d="M222.19,377.34h-130C72.72,377.34,57,391.79,57,409.6s15.75,32.26,35.18,32.26c14.67,0,27.23-8.23,32.51-19.92,5.29,11.69,17.85,19.92,32.51,19.92s27.22-8.23,32.51-19.92c5.28,11.69,17.84,19.92,32.51,19.92,19.43,0,35.18-14.44,35.18-32.26S241.62,377.34,222.19,377.34Z"/><path class="cls-6" d="M222.19,377.74c-11.51,0-23,.22-34.54.76s-23,1.19-34.53,1.66-23,.78-34.53.78c-5.76,0-11.51-.05-17.27-.17-2.87-.07-5.75-.09-8.63-.19-.75,0-1.34,0-2,0s-1.33,0-2,0l-2,.21-1,.1c-.33.05-.65.13-1,.19a33.54,33.54,0,0,0-14.59,6.25A30.51,30.51,0,0,0,64.37,393a28.34,28.34,0,0,0-2.25,3.38,18.23,18.23,0,0,0-1,1.79L60.32,400a26.66,26.66,0,0,0-1.82,8,27.18,27.18,0,0,0,.53,8.19,28.93,28.93,0,0,0,8,14.26,32.63,32.63,0,0,0,6.56,5.08,32.27,32.27,0,0,0,3.73,1.84c.64.25,1.26.56,1.92.78l2,.62a12.62,12.62,0,0,0,2,.52l2,.44,2.06.24a17.86,17.86,0,0,0,2.06.16,36.31,36.31,0,0,0,8.21-.52,34.67,34.67,0,0,0,14.73-6.51,30.78,30.78,0,0,0,9.58-12.38,3,3,0,0,1,5.44-.18l.08.18a30.88,30.88,0,0,0,12.36,12.93,34.26,34.26,0,0,0,17.39,4.43,33.87,33.87,0,0,0,17.09-4.93,29.53,29.53,0,0,0,11.53-12.94,4.26,4.26,0,0,1,7.76-.05l0,.05a29.34,29.34,0,0,0,10.26,11.88,32.79,32.79,0,0,0,15,5.5,17.18,17.18,0,0,0,2,.16,15.56,15.56,0,0,0,2.05,0l2-.06c.69,0,1.35-.16,2-.22a30.62,30.62,0,0,0,4-.71,18.35,18.35,0,0,0,2-.56c.65-.23,1.33-.35,1.95-.64l1.9-.77c.65-.23,1.22-.61,1.84-.9a34.8,34.8,0,0,0,3.54-2.07c.58-.38,1.1-.83,1.65-1.23l.82-.63c.26-.22.5-.46.76-.69.5-.48,1-.93,1.51-1.41l1.37-1.54a27.44,27.44,0,0,0,4.44-7l.44-.94c.13-.33.23-.66.34-1,.22-.66.47-1.31.68-2a30.22,30.22,0,0,0,.78-4.14,27.93,27.93,0,0,0-3.19-16.65,34.57,34.57,0,0,0-5.27-7.05c-.53-.53-1.1-1-1.65-1.5l-.84-.74-.89-.66c-.61-.44-1.2-.9-1.82-1.32l-1.93-1.14a17.82,17.82,0,0,0-2-1c-.68-.3-1.35-.67-2.05-.93a37.55,37.55,0,0,0-4.29-1.37A38.38,38.38,0,0,0,222.19,377.74Zm0-.8a41.59,41.59,0,0,1,9.16,1.06,38.87,38.87,0,0,1,4.45,1.28c.73.25,1.43.57,2.15.86a16.73,16.73,0,0,1,2.11,1l2.06,1.08,2,1.25,1,.64.92.72c.61.48,1.24.95,1.84,1.45a36.64,36.64,0,0,1,6.25,7.06c.45.66.81,1.36,1.22,2.05l.61,1,.5,1.09c.33.73.69,1.45,1,2.2l.77,2.29a31.42,31.42,0,0,1,1.34,9.62,35.47,35.47,0,0,1-.4,4.92c-.16.81-.36,1.61-.54,2.42-.1.4-.18.81-.29,1.21l-.41,1.17a33.26,33.26,0,0,1-4.51,8.89l-1.52,2c-.55.63-1.13,1.23-1.69,1.85-.29.3-.57.62-.86.91l-.94.84c-.63.55-1.23,1.14-1.89,1.65a39,39,0,0,1-8.62,5.17,41.44,41.44,0,0,1-19.74,3.14A40.26,40.26,0,0,1,199,439.18a37,37,0,0,1-13.25-15.49h7.78a37.15,37.15,0,0,1-15.12,16.43,41.21,41.21,0,0,1-21.28,5.55,40.79,40.79,0,0,1-21-6.05,37.23,37.23,0,0,1-8.42-7.1,35.1,35.1,0,0,1-5.87-9.34h5.52a35.9,35.9,0,0,1-12.25,13.87,39.19,39.19,0,0,1-17,6.22,41.24,41.24,0,0,1-17.77-1.79,37.83,37.83,0,0,1-15.08-9.32,34.38,34.38,0,0,1-5.4-7.11l-1-2A20.9,20.9,0,0,1,58,421a31.76,31.76,0,0,1-1.42-4.26,32.47,32.47,0,0,1,.68-17.85l.78-2.14a20.31,20.31,0,0,1,1-2.07,33,33,0,0,1,2.26-4,36.33,36.33,0,0,1,6.05-6.88,38.15,38.15,0,0,1,16.24-8.51c.38-.09.75-.21,1.13-.29l1.15-.2,2.3-.39c1.52-.14,3.14-.27,4.61-.34,2.88-.1,5.76-.13,8.63-.19,5.76-.13,11.51-.2,17.27-.18q17.26,0,34.53.78c11.51.47,23,1.19,34.53,1.67S210.68,377,222.19,376.94Z"/><path class="cls-12" d="M352.13,377.34h-130c-19.43,0-35.19,14.45-35.19,32.26s15.76,32.26,35.19,32.26c14.66,0,27.22-8.23,32.51-19.92,5.28,11.69,17.84,19.92,32.5,19.92s27.23-8.23,32.51-19.92c5.29,11.69,17.84,19.92,32.51,19.92,19.43,0,35.18-14.44,35.18-32.26S371.56,377.34,352.13,377.34Z"/><path class="cls-6" d="M352.13,377.74c-11.51,0-23,.22-34.53.76s-23,1.19-34.54,1.66-23,.78-34.53.78c-5.75,0-11.51-.05-17.26-.17-2.88-.07-5.76-.09-8.64-.19-.75,0-1.34,0-2,0s-1.33,0-2,0l-2,.21-1,.1c-.33.05-.65.13-1,.19a33.54,33.54,0,0,0-14.59,6.25,30.81,30.81,0,0,0-5.78,5.63,29.61,29.61,0,0,0-2.25,3.38,18.23,18.23,0,0,0-1,1.79l-.83,1.86A28.34,28.34,0,0,0,189,416.16a28.93,28.93,0,0,0,8,14.26,32.63,32.63,0,0,0,6.56,5.08,33.08,33.08,0,0,0,3.73,1.84c.64.25,1.26.56,1.92.78l2,.62a12.62,12.62,0,0,0,2,.52l2,.44,2.06.24a17.86,17.86,0,0,0,2.06.16,36.31,36.31,0,0,0,8.21-.52,34.67,34.67,0,0,0,14.73-6.51,30.9,30.9,0,0,0,9.59-12.38,3,3,0,0,1,3.9-1.61,3,3,0,0,1,1.53,1.43l.09.18a30.79,30.79,0,0,0,12.35,12.93,34.11,34.11,0,0,0,34.49-.5,29.57,29.57,0,0,0,11.52-12.94,4.26,4.26,0,0,1,7.76-.05l0,.05a29.34,29.34,0,0,0,10.26,11.88,32.79,32.79,0,0,0,15.05,5.5,17.18,17.18,0,0,0,2,.16,15.62,15.62,0,0,0,2,0l2-.06c.69,0,1.36-.16,2-.22a30.77,30.77,0,0,0,4-.71,19.22,19.22,0,0,0,2-.56c.64-.23,1.32-.35,1.94-.64l1.9-.77c.65-.23,1.22-.61,1.84-.9a36.07,36.07,0,0,0,3.55-2.07c.57-.38,1.09-.83,1.64-1.23l.82-.63c.27-.22.51-.46.76-.69.5-.48,1-.93,1.51-1.41l1.37-1.54a27.17,27.17,0,0,0,4.44-7l.45-.94c.12-.33.22-.66.34-1,.21-.66.46-1.31.67-2a28.78,28.78,0,0,0,.78-4.14,27.86,27.86,0,0,0-3.19-16.65,34.21,34.21,0,0,0-5.27-7.05c-.52-.53-1.1-1-1.65-1.5l-.83-.74-.9-.66c-.61-.44-1.2-.9-1.81-1.32l-1.94-1.14a17.82,17.82,0,0,0-2-1c-.68-.3-1.34-.67-2-.93a37.55,37.55,0,0,0-4.29-1.37A38.31,38.31,0,0,0,352.13,377.74Zm0-.8a41.59,41.59,0,0,1,9.16,1.06,38.87,38.87,0,0,1,4.45,1.28c.73.25,1.43.57,2.15.86a16.11,16.11,0,0,1,2.11,1l2.06,1.08c.67.41,1.31.84,2,1.25l1,.64.93.72c.61.48,1.24.95,1.83,1.45a36.69,36.69,0,0,1,6.26,7.06c.44.66.81,1.36,1.22,2.05l.6,1,.51,1.09c.32.73.68,1.45,1,2.2l.76,2.29a31.12,31.12,0,0,1,1.34,9.62,34,34,0,0,1-.4,4.92c-.15.81-.35,1.61-.53,2.42-.1.4-.19.81-.3,1.21l-.41,1.17a33.26,33.26,0,0,1-4.51,8.89l-1.52,2c-.54.63-1.12,1.23-1.69,1.85-.29.3-.56.62-.86.91l-.94.84c-.63.55-1.23,1.14-1.89,1.65a39,39,0,0,1-8.62,5.17A41.42,41.42,0,0,1,348,445.76a40.18,40.18,0,0,1-19-6.58,36.91,36.91,0,0,1-13.26-15.49h7.78a37.09,37.09,0,0,1-15.12,16.43,41.39,41.39,0,0,1-42.26-.5,37.44,37.44,0,0,1-8.42-7.1,35.32,35.32,0,0,1-5.86-9.34h5.52a35.92,35.92,0,0,1-12.26,13.87,39.19,39.19,0,0,1-17,6.22,41.21,41.21,0,0,1-17.77-1.79,37.87,37.87,0,0,1-15.09-9.32,34.38,34.38,0,0,1-5.4-7.11l-1.05-2c-.36-.65-.58-1.37-.88-2.06a31.72,31.72,0,0,1-1.41-4.26,32.38,32.38,0,0,1,.67-17.85l.78-2.14a22.73,22.73,0,0,1,.95-2.07,31.79,31.79,0,0,1,2.27-4,35.93,35.93,0,0,1,6-6.88,38.21,38.21,0,0,1,16.24-8.51c.38-.09.75-.21,1.13-.29l1.15-.2,2.3-.39c1.53-.14,3.14-.27,4.61-.34,2.88-.1,5.76-.13,8.64-.19,5.75-.13,11.51-.2,17.26-.18q17.27,0,34.53.78c11.52.47,23,1.19,34.54,1.67S340.62,377,352.13,376.94Z"/><path class="cls-13" d="M482.07,377.34H352c-19.43,0-35.18,14.45-35.18,32.26s15.75,32.26,35.18,32.26c14.67,0,27.22-8.23,32.51-19.92,5.28,11.69,17.84,19.92,32.51,19.92s27.22-8.23,32.5-19.92c5.29,11.69,17.85,19.92,32.51,19.92,19.43,0,35.19-14.44,35.19-32.26S501.5,377.34,482.07,377.34Z"/><path class="cls-13" d="M612,377.34H482c-19.43,0-35.18,14.45-35.18,32.26s15.75,32.26,35.18,32.26c14.67,0,27.23-8.23,32.51-19.92,5.29,11.69,17.84,19.92,32.51,19.92s27.22-8.23,32.51-19.92c5.28,11.69,17.84,19.92,32.5,19.92,19.44,0,35.19-14.44,35.19-32.26S631.45,377.34,612,377.34Z"/><path class="cls-12" d="M742,377.34h-130c-19.44,0-35.19,14.45-35.19,32.26s15.75,32.26,35.19,32.26c14.66,0,27.22-8.23,32.5-19.92,5.29,11.69,17.85,19.92,32.51,19.92s27.23-8.23,32.51-19.92c5.28,11.69,17.84,19.92,32.51,19.92,19.43,0,35.18-14.44,35.18-32.26S761.39,377.34,742,377.34Z"/><path class="cls-6" d="M742,377.74c-11.51,0-23,.22-34.53.76s-23,1.19-34.54,1.66-23,.78-34.53.78c-5.75,0-11.51-.05-17.27-.17-2.87-.07-5.75-.09-8.63-.19-.75,0-1.34,0-2,0s-1.33,0-2,0l-2,.21-1,.1c-.33.05-.65.13-1,.19a33.54,33.54,0,0,0-14.59,6.25,30.81,30.81,0,0,0-5.78,5.63,28.34,28.34,0,0,0-2.25,3.38,18.23,18.23,0,0,0-1,1.79l-.83,1.86a26.66,26.66,0,0,0-1.82,8,27.18,27.18,0,0,0,.53,8.19,28.93,28.93,0,0,0,8,14.26,32.63,32.63,0,0,0,6.56,5.08,32.27,32.27,0,0,0,3.73,1.84c.64.25,1.26.56,1.92.78l2,.62a12.62,12.62,0,0,0,2,.52l2,.44,2.06.24a17.86,17.86,0,0,0,2.06.16,36.31,36.31,0,0,0,8.21-.52,34.67,34.67,0,0,0,14.73-6.51,30.78,30.78,0,0,0,9.58-12.38,3,3,0,0,1,5.44-.18l.08.18a30.88,30.88,0,0,0,12.36,12.93,34.26,34.26,0,0,0,17.39,4.43A33.87,33.87,0,0,0,694,433.12a29.53,29.53,0,0,0,11.53-12.94,4.26,4.26,0,0,1,7.76-.05l0,.05a29.34,29.34,0,0,0,10.26,11.88,32.79,32.79,0,0,0,15,5.5,17.18,17.18,0,0,0,2,.16,15.59,15.59,0,0,0,2.05,0l2-.06c.69,0,1.36-.16,2-.22a30.62,30.62,0,0,0,4-.71,19.22,19.22,0,0,0,2-.56c.64-.23,1.32-.35,1.94-.64l1.9-.77c.65-.23,1.22-.61,1.84-.9a36.07,36.07,0,0,0,3.55-2.07c.57-.38,1.09-.83,1.64-1.23l.82-.63c.26-.22.51-.46.76-.69.5-.48,1-.93,1.51-1.41l1.37-1.54a27.44,27.44,0,0,0,4.44-7l.44-.94c.13-.33.23-.66.34-1,.22-.66.47-1.31.68-2a30.22,30.22,0,0,0,.78-4.14,27.86,27.86,0,0,0-3.19-16.65,34.57,34.57,0,0,0-5.27-7.05c-.53-.53-1.1-1-1.65-1.5l-.83-.74-.9-.66c-.61-.44-1.2-.9-1.82-1.32l-1.93-1.14a17.82,17.82,0,0,0-2-1c-.68-.3-1.35-.67-2.05-.93a37.55,37.55,0,0,0-4.29-1.37A38.38,38.38,0,0,0,742,377.74Zm0-.8a41.59,41.59,0,0,1,9.16,1.06,38.87,38.87,0,0,1,4.45,1.28c.73.25,1.43.57,2.15.86a16.11,16.11,0,0,1,2.11,1l2.06,1.08,2,1.25,1,.64.92.72c.61.48,1.24.95,1.84,1.45a37,37,0,0,1,6.26,7.06c.44.66.81,1.36,1.22,2.05l.6,1,.51,1.09c.32.73.68,1.45,1,2.2l.77,2.29a31.42,31.42,0,0,1,1.34,9.62,35.47,35.47,0,0,1-.4,4.92c-.15.81-.36,1.61-.54,2.42-.09.4-.18.81-.29,1.21l-.41,1.17a33.26,33.26,0,0,1-4.51,8.89l-1.52,2c-.55.63-1.12,1.23-1.69,1.85-.29.3-.57.62-.86.91l-.94.84c-.63.55-1.23,1.14-1.89,1.65a39,39,0,0,1-8.62,5.17,41.42,41.42,0,0,1-19.74,3.14,40.18,40.18,0,0,1-19-6.58,36.91,36.91,0,0,1-13.26-15.49h7.78a37.09,37.09,0,0,1-15.12,16.43,41.21,41.21,0,0,1-21.28,5.55,40.79,40.79,0,0,1-21-6.05,37.23,37.23,0,0,1-8.42-7.1,35.36,35.36,0,0,1-5.87-9.34h5.52a35.9,35.9,0,0,1-12.25,13.87,39.19,39.19,0,0,1-17,6.22,41.21,41.21,0,0,1-17.77-1.79,37.87,37.87,0,0,1-15.09-9.32,34.38,34.38,0,0,1-5.4-7.11l-1-2c-.36-.65-.58-1.37-.88-2.06a33.25,33.25,0,0,1-1.42-4.26A32.47,32.47,0,0,1,577,398.9l.78-2.14a20.31,20.31,0,0,1,1-2.07,33,33,0,0,1,2.26-4,36.33,36.33,0,0,1,6-6.88,38.21,38.21,0,0,1,16.24-8.51c.38-.09.75-.21,1.13-.29l1.15-.2,2.3-.39c1.52-.14,3.14-.27,4.61-.34,2.88-.1,5.76-.13,8.63-.19,5.76-.13,11.52-.2,17.27-.18q17.26,0,34.53.78c11.51.47,23,1.19,34.54,1.67S730.45,377,742,376.94Z"/><path class="cls-12" d="M871.9,377.34h-130c-19.43,0-35.19,14.45-35.19,32.26s15.76,32.26,35.19,32.26c14.66,0,27.22-8.23,32.51-19.92,5.28,11.69,17.84,19.92,32.5,19.92s27.23-8.23,32.51-19.92c5.29,11.69,17.85,19.92,32.51,19.92,19.43,0,35.18-14.44,35.18-32.26S891.33,377.34,871.9,377.34Z"/><path class="cls-6" d="M871.9,377.74c-11.51,0-23,.22-34.53.76s-23,1.19-34.53,1.66-23,.78-34.54.78c-5.75,0-11.51-.05-17.26-.17-2.88-.07-5.76-.09-8.64-.19-.74,0-1.34,0-2,0s-1.33,0-2,0l-2,.21-1,.1c-.33.05-.65.13-1,.19a33.59,33.59,0,0,0-14.59,6.25,30.81,30.81,0,0,0-5.78,5.63,29.61,29.61,0,0,0-2.25,3.38c-.31.6-.71,1.16-1,1.79L710,400a26.68,26.68,0,0,0-1.83,8,27.18,27.18,0,0,0,.53,8.19,28.88,28.88,0,0,0,8,14.26,32.29,32.29,0,0,0,6.55,5.08,33.08,33.08,0,0,0,3.73,1.84c.64.25,1.27.56,1.92.78l2,.62a12.91,12.91,0,0,0,2,.52l2,.44,2,.24a17.86,17.86,0,0,0,2.06.16,36.44,36.44,0,0,0,8.22-.52A34.78,34.78,0,0,0,762,433.07a31,31,0,0,0,9.58-12.38,3,3,0,0,1,3.9-1.61,3,3,0,0,1,1.53,1.43l.09.18a30.76,30.76,0,0,0,12.36,12.93,34.09,34.09,0,0,0,34.48-.5,29.57,29.57,0,0,0,11.52-12.94,4.27,4.27,0,0,1,5.64-2.15,4.21,4.21,0,0,1,2.12,2.1l0,.05a29.24,29.24,0,0,0,10.25,11.88,32.83,32.83,0,0,0,15.05,5.5,17.18,17.18,0,0,0,2,.16,15.44,15.44,0,0,0,2,0l2-.06c.69,0,1.36-.16,2-.22a30.48,30.48,0,0,0,4-.71,19.22,19.22,0,0,0,2-.56c.64-.23,1.33-.35,1.94-.64l1.9-.77c.65-.23,1.22-.61,1.84-.9a36.07,36.07,0,0,0,3.55-2.07c.57-.38,1.09-.83,1.64-1.23l.83-.63c.26-.22.5-.46.75-.69.5-.48,1-.93,1.51-1.41l1.37-1.54a27.47,27.47,0,0,0,4.45-7l.44-.94c.12-.33.22-.66.34-1,.22-.66.46-1.31.67-2a28.78,28.78,0,0,0,.78-4.14,27.86,27.86,0,0,0-3.19-16.65,34.21,34.21,0,0,0-5.27-7.05c-.52-.53-1.1-1-1.65-1.5l-.83-.74-.9-.66c-.6-.44-1.2-.9-1.81-1.32l-1.93-1.14a18.88,18.88,0,0,0-2-1c-.68-.3-1.34-.67-2-.93a37.9,37.9,0,0,0-13.22-2.55Zm0-.8a41.59,41.59,0,0,1,9.16,1.06,38.87,38.87,0,0,1,4.45,1.28c.73.25,1.43.57,2.15.86a16.11,16.11,0,0,1,2.11,1l2.06,1.08c.67.41,1.31.84,2,1.25l1,.64.92.72c.61.48,1.24.95,1.83,1.45a36.36,36.36,0,0,1,6.26,7.06c.45.66.81,1.36,1.22,2.05l.6,1,.51,1.09c.32.73.68,1.45,1,2.2l.76,2.29a31.12,31.12,0,0,1,1.34,9.62,34,34,0,0,1-.4,4.92c-.15.81-.35,1.61-.53,2.42-.1.4-.18.81-.3,1.21l-.4,1.17a33.58,33.58,0,0,1-4.52,8.89l-1.52,2c-.54.63-1.12,1.23-1.69,1.85-.29.3-.56.62-.86.91l-.93.84c-.63.55-1.24,1.14-1.9,1.65a39,39,0,0,1-8.62,5.17,41.4,41.4,0,0,1-19.74,3.14,40.18,40.18,0,0,1-19-6.58,36.91,36.91,0,0,1-13.26-15.49h7.78a37.13,37.13,0,0,1-15.11,16.43,41.25,41.25,0,0,1-21.29,5.55,40.79,40.79,0,0,1-21-6.05,37.44,37.44,0,0,1-8.42-7.1,35.32,35.32,0,0,1-5.86-9.34h5.52a35.84,35.84,0,0,1-12.26,13.87,39.19,39.19,0,0,1-17,6.22,41.23,41.23,0,0,1-17.77-1.79A37.77,37.77,0,0,1,715,432.16a34.43,34.43,0,0,1-5.41-7.11l-1.05-2c-.36-.65-.58-1.37-.88-2.06a31.72,31.72,0,0,1-1.41-4.26,32.38,32.38,0,0,1,.67-17.85l.78-2.14c.25-.72.64-1.38.95-2.07a31.79,31.79,0,0,1,2.27-4,36.28,36.28,0,0,1,6-6.88,38.21,38.21,0,0,1,16.24-8.51c.38-.09.75-.21,1.13-.29l1.15-.2,2.3-.39c1.53-.14,3.14-.27,4.61-.34,2.88-.1,5.76-.13,8.64-.19,5.75-.13,11.51-.2,17.26-.18q17.26,0,34.54.78c11.51.47,23,1.19,34.53,1.67S860.39,377,871.9,376.94Z"/><path class="cls-8" d="M88.13,355.81v0l-.78,0a15.64,15.64,0,0,0-8.6,2.54,14.83,14.83,0,0,0-3.19,2.81A13.56,13.56,0,0,0,72.29,370c0,.2,0,.4,0,.6a13.33,13.33,0,0,0,2,6.5,15.24,15.24,0,0,0,13,7.05l.78,0v0h.8V355.81Z"/><polygon class="cls-8" points="102.73 367.73 88.93 367.73 88.93 370.55 100.43 370.55 102.73 367.73"/><polygon class="cls-8" points="197.72 355.81 195.65 358.35 193.35 361.17 187.99 367.73 185.69 370.55 180.39 377.05 174.64 384.1 198.81 384.1 198.81 377.05 198.81 370.55 198.81 367.73 198.81 361.17 198.81 358.35 198.81 355.81 197.72 355.81"/><polygon class="cls-8" points="88.93 355.81 88.93 358.35 88.93 361.17 88.93 367.73 88.93 370.55 88.93 377.05 88.93 384.1 89.38 384.1 95.13 377.05 100.43 370.55 102.73 367.73 108.09 361.17 110.39 358.35 112.46 355.81 88.93 355.81"/><polygon class="cls-8" points="143.54 355.81 141.47 358.35 139.17 361.17 133.81 367.73 131.51 370.55 126.21 377.05 120.45 384.1 143.56 384.1 149.31 377.05 154.62 370.55 156.91 367.73 162.27 361.17 164.57 358.35 166.64 355.81 143.54 355.81"/><polygon class="cls-9" points="112.46 355.81 110.39 358.35 108.09 361.17 102.73 367.73 100.43 370.55 95.13 377.05 89.38 384.1 120.45 384.1 126.21 377.05 131.51 370.55 133.81 367.73 139.17 361.17 141.47 358.35 143.54 355.81 112.46 355.81"/><polygon class="cls-10" points="166.64 355.81 164.57 358.35 162.27 361.17 156.91 367.73 154.62 370.55 149.31 377.05 143.56 384.1 174.64 384.1 180.39 377.05 185.69 370.55 187.99 367.73 193.35 361.17 195.65 358.35 197.72 355.81 166.64 355.81"/><polygon class="cls-8" points="212.61 367.73 198.81 367.73 198.81 370.55 210.31 370.55 212.61 367.73"/><polygon class="cls-8" points="307.6 355.81 305.53 358.35 303.23 361.17 297.87 367.73 295.57 370.55 290.27 377.05 284.52 384.1 308.69 384.1 308.69 377.05 308.69 370.55 308.69 367.73 308.69 361.17 308.69 358.35 308.69 355.81 307.6 355.81"/><polygon class="cls-8" points="198.81 355.81 198.81 358.35 198.81 361.17 198.81 367.73 198.81 370.55 198.81 377.05 198.81 384.1 199.26 384.1 205.01 377.05 210.31 370.55 212.61 367.73 217.97 361.17 220.27 358.35 222.34 355.81 198.81 355.81"/><polygon class="cls-8" points="253.42 355.81 251.35 358.35 249.05 361.17 243.69 367.73 241.39 370.55 236.09 377.05 230.34 384.1 253.44 384.1 259.19 377.05 264.5 370.55 266.79 367.73 272.15 361.17 274.45 358.35 276.52 355.81 253.42 355.81"/><polygon class="cls-9" points="222.34 355.81 220.27 358.35 217.97 361.17 212.61 367.73 210.31 370.55 205.01 377.05 199.26 384.1 230.34 384.1 236.09 377.05 241.39 370.55 243.69 367.73 249.05 361.17 251.35 358.35 253.42 355.81 222.34 355.81"/><polygon class="cls-10" points="276.52 355.81 274.45 358.35 272.15 361.17 266.79 367.73 264.5 370.55 259.19 377.05 253.44 384.1 284.52 384.1 290.27 377.05 295.57 370.55 297.87 367.73 303.23 361.17 305.53 358.35 307.6 355.81 276.52 355.81"/><polygon class="cls-8" points="322.49 367.73 308.69 367.73 308.69 370.55 320.2 370.55 322.49 367.73"/><polygon class="cls-8" points="417.48 355.81 415.41 358.35 413.11 361.17 407.75 367.73 405.46 370.55 400.15 377.05 394.4 384.1 418.57 384.1 418.57 377.05 418.57 370.55 418.57 367.73 418.57 361.17 418.57 358.35 418.57 355.81 417.48 355.81"/><polygon class="cls-8" points="308.69 355.81 308.69 358.35 308.69 361.17 308.69 367.73 308.69 370.55 308.69 377.05 308.69 384.1 309.14 384.1 314.89 377.05 320.2 370.55 322.49 367.73 327.85 361.17 330.15 358.35 332.22 355.81 308.69 355.81"/><polygon class="cls-8" points="363.3 355.81 361.23 358.35 358.93 361.17 353.57 367.73 351.27 370.55 345.97 377.05 340.22 384.1 363.32 384.1 369.07 377.05 374.38 370.55 376.68 367.73 382.03 361.17 384.33 358.35 386.4 355.81 363.3 355.81"/><polygon class="cls-9" points="332.22 355.81 330.15 358.35 327.85 361.17 322.49 367.73 320.2 370.55 314.89 377.05 309.14 384.1 340.22 384.1 345.97 377.05 351.27 370.55 353.57 367.73 358.93 361.17 361.23 358.35 363.3 355.81 332.22 355.81"/><polygon class="cls-10" points="386.4 355.81 384.33 358.35 382.03 361.17 376.68 367.73 374.38 370.55 369.07 377.05 363.32 384.1 394.4 384.1 400.15 377.05 405.46 370.55 407.75 367.73 413.11 361.17 415.41 358.35 417.48 355.81 386.4 355.81"/><polygon class="cls-8" points="432.37 367.73 418.57 367.73 418.57 370.55 430.08 370.55 432.37 367.73"/><polygon class="cls-8" points="527.36 355.81 525.29 358.35 522.99 361.17 517.63 367.73 515.34 370.55 510.03 377.05 504.28 384.1 528.45 384.1 528.45 377.05 528.45 370.55 528.45 367.73 528.45 361.17 528.45 358.35 528.45 355.81 527.36 355.81"/><polygon class="cls-8" points="418.57 355.81 418.57 358.35 418.57 361.17 418.57 367.73 418.57 370.55 418.57 377.05 418.57 384.1 419.02 384.1 424.77 377.05 430.08 370.55 432.37 367.73 437.73 361.17 440.03 358.35 442.1 355.81 418.57 355.81"/><polygon class="cls-8" points="473.18 355.81 471.11 358.35 468.81 361.17 463.45 367.73 461.15 370.55 455.85 377.05 450.1 384.1 473.2 384.1 478.95 377.05 484.26 370.55 486.56 367.73 491.91 361.17 494.21 358.35 496.28 355.81 473.18 355.81"/><polygon class="cls-9" points="442.1 355.81 440.03 358.35 437.73 361.17 432.37 367.73 430.08 370.55 424.77 377.05 419.02 384.1 450.1 384.1 455.85 377.05 461.15 370.55 463.45 367.73 468.81 361.17 471.11 358.35 473.18 355.81 442.1 355.81"/><polygon class="cls-10" points="496.28 355.81 494.21 358.35 491.91 361.17 486.56 367.73 484.26 370.55 478.95 377.05 473.2 384.1 504.28 384.1 510.03 377.05 515.34 370.55 517.63 367.73 522.99 361.17 525.29 358.35 527.36 355.81 496.28 355.81"/><polygon class="cls-8" points="542.25 367.73 528.45 367.73 528.45 370.55 539.96 370.55 542.25 367.73"/><polygon class="cls-8" points="637.24 355.81 635.17 358.35 632.87 361.17 627.51 367.73 625.22 370.55 619.91 377.05 614.16 384.1 638.33 384.1 638.33 377.05 638.33 370.55 638.33 367.73 638.33 361.17 638.33 358.35 638.33 355.81 637.24 355.81"/><polygon class="cls-8" points="528.45 355.81 528.45 358.35 528.45 361.17 528.45 367.73 528.45 370.55 528.45 377.05 528.45 384.1 528.9 384.1 534.65 377.05 539.96 370.55 542.25 367.73 547.61 361.17 549.91 358.35 551.98 355.81 528.45 355.81"/><polygon class="cls-8" points="583.06 355.81 580.99 358.35 578.69 361.17 573.33 367.73 571.04 370.55 565.73 377.05 559.98 384.1 583.08 384.1 588.83 377.05 594.14 370.55 596.44 367.73 601.79 361.17 604.09 358.35 606.16 355.81 583.06 355.81"/><polygon class="cls-9" points="551.98 355.81 549.91 358.35 547.61 361.17 542.25 367.73 539.96 370.55 534.65 377.05 528.9 384.1 559.98 384.1 565.73 377.05 571.04 370.55 573.33 367.73 578.69 361.17 580.99 358.35 583.06 355.81 551.98 355.81"/><polygon class="cls-10" points="606.16 355.81 604.09 358.35 601.79 361.17 596.44 367.73 594.14 370.55 588.83 377.05 583.08 384.1 614.16 384.1 619.91 377.05 625.22 370.55 627.51 367.73 632.87 361.17 635.17 358.35 637.24 355.81 606.16 355.81"/><polygon class="cls-8" points="652.14 367.73 638.33 367.73 638.33 370.55 649.84 370.55 652.14 367.73"/><polygon class="cls-8" points="747.12 355.81 745.05 358.35 742.75 361.17 737.4 367.73 735.1 370.55 729.79 377.05 724.04 384.1 748.22 384.1 748.22 377.05 748.22 370.55 748.22 367.73 748.22 361.17 748.22 358.35 748.22 355.81 747.12 355.81"/><polygon class="cls-8" points="638.33 355.81 638.33 358.35 638.33 361.17 638.33 367.73 638.33 370.55 638.33 377.05 638.33 384.1 638.78 384.1 644.53 377.05 649.84 370.55 652.14 367.73 657.49 361.17 659.79 358.35 661.86 355.81 638.33 355.81"/><polygon class="cls-8" points="692.94 355.81 690.87 358.35 688.57 361.17 683.21 367.73 680.92 370.55 675.61 377.05 669.86 384.1 692.96 384.1 698.71 377.05 704.02 370.55 706.32 367.73 711.67 361.17 713.97 358.35 716.04 355.81 692.94 355.81"/><polygon class="cls-9" points="661.86 355.81 659.79 358.35 657.49 361.17 652.14 367.73 649.84 370.55 644.53 377.05 638.78 384.1 669.86 384.1 675.61 377.05 680.92 370.55 683.21 367.73 688.57 361.17 690.87 358.35 692.94 355.81 661.86 355.81"/><polygon class="cls-10" points="716.04 355.81 713.97 358.35 711.67 361.17 706.32 367.73 704.02 370.55 698.71 377.05 692.96 384.1 724.04 384.1 729.79 377.05 735.1 370.55 737.4 367.73 742.75 361.17 745.05 358.35 747.12 355.81 716.04 355.81"/><polygon class="cls-8" points="762.02 367.73 748.22 367.73 748.22 370.55 759.72 370.55 762.02 367.73"/><polygon class="cls-8" points="857 355.81 854.93 358.35 852.63 361.17 847.28 367.73 844.98 370.55 839.67 377.05 833.92 384.1 858.1 384.1 858.1 377.05 858.1 370.55 858.1 367.73 858.1 361.17 858.1 358.35 858.1 355.81 857 355.81"/><polygon class="cls-8" points="748.22 355.81 748.22 358.35 748.22 361.17 748.22 367.73 748.22 370.55 748.22 377.05 748.22 384.1 748.66 384.1 754.41 377.05 759.72 370.55 762.02 367.73 767.37 361.17 769.67 358.35 771.74 355.81 748.22 355.81"/><polygon class="cls-8" points="802.82 355.81 800.75 358.35 798.45 361.17 793.1 367.73 790.8 370.55 785.49 377.05 779.74 384.1 802.84 384.1 808.6 377.05 813.9 370.55 816.2 367.73 821.56 361.17 823.85 358.35 825.93 355.81 802.82 355.81"/><polygon class="cls-9" points="771.74 355.81 769.67 358.35 767.37 361.17 762.02 367.73 759.72 370.55 754.41 377.05 748.66 384.1 779.74 384.1 785.49 377.05 790.8 370.55 793.1 367.73 798.45 361.17 800.75 358.35 802.82 355.81 771.74 355.81"/><polygon class="cls-10" points="825.93 355.81 823.85 358.35 821.56 361.17 816.2 367.73 813.9 370.55 808.6 377.05 802.84 384.1 833.92 384.1 839.67 377.05 844.98 370.55 847.28 367.73 852.63 361.17 854.93 358.35 857 355.81 825.93 355.81"/><path class="cls-8" d="M874.55,367.73a13.74,13.74,0,0,0-3.08-6.57,15.07,15.07,0,0,0-3.19-2.81,15.67,15.67,0,0,0-8.61-2.54l-.78,0v0h-.79V384.1h.79v0l.78,0a15.26,15.26,0,0,0,13-7.05,13.54,13.54,0,0,0,2-6.5c0-.2,0-.4,0-.6A13.57,13.57,0,0,0,874.55,367.73Z"/><polygon class="cls-2" points="709.67 634.68 682.32 596.75 682.32 559.4 655.37 559.4 594.62 475.17 479.57 315.67 364.52 475.17 303.77 559.4 284.1 559.4 284.1 586.65 249.46 634.68 284.1 634.68 284.1 918.74 682.32 918.74 682.32 634.68 709.67 634.68"/><circle class="cls-3" cx="479.57" cy="699.32" r="153.56"/><circle class="cls-11" cx="479.57" cy="699.32" r="126.32"/><path class="cls-8" d="M197.43,701.53h0a10,10,0,0,0,.24,1.16,18.16,18.16,0,0,0,7.58,11.15,16.86,16.86,0,0,0,2.59,1.29,11.34,11.34,0,0,0,2.58.61,9.69,9.69,0,0,0,2.08,0,10,10,0,0,0,1.94-.42,9.13,9.13,0,0,0,3.22-1.85,11.7,11.7,0,0,0,1.52-1.62l.35-.48a27.51,27.51,0,0,0,3-6c.42-1.07.8-2.07,1.14-3s.71-1.75,1-2.45a6.15,6.15,0,0,0,.58-3.71,1.69,1.69,0,0,1-.09-.34h0l-.06-.37-6.94,1.19-6.41,1.11-2.78.47-6.47,1.12-2.77.47-2.51.43Z"/><path class="cls-8" d="M209.62,683.89a37.28,37.28,0,0,0-1.06,7.15,31.91,31.91,0,0,0,.4,7.29l2.78-.47a31.72,31.72,0,0,1,.15-11.12C211.08,685.83,210.35,684.89,209.62,683.89Z"/><path class="cls-8" d="M289.36,687l-3-1.36L283,684.2q-4-1.68-7.92-3.2c-1.12-.44-2.26-.86-3.41-1.25-1.32-.46-2.63-.89-3.94-1.3s-2.59-.82-3.91-1.1l-2.12-.45c-.35-.06-.7-.14-1-.19a9.24,9.24,0,0,0-.92.1,7.45,7.45,0,0,0-3.18,1.52s0,0,0,0l0,.1.33.77.46,1.06.24.54.22.62.45,1.23.9,2.46,1.69,5.25c.55,1.78,1.05,3.63,1.58,5.44l6.79-1.92,6.26-1.76,2.71-.77,6.31-1.78,2.71-.76,2.45-.69Z"/><path class="cls-8" d="M197.21,700.35l2.51-.43,2.77-.47,6.47-1.12,2.78-.47,6.41-1.11,6.94-1.19,0-.21a19.74,19.74,0,0,1-3.68-1.25,25.24,25.24,0,0,1-3.53-2,26.91,26.91,0,0,1-3.08-2.43,31.45,31.45,0,0,1-2.87-2.9c-.81-.91-1.54-1.85-2.27-2.85a45.26,45.26,0,0,1-4.48-7.7c-.54-1.19-1-2.41-1.49-3.69l-.62-1.75c-.17-.59-.33-1.2-.49-1.81a54.21,54.21,0,0,0-5.09,14.84A46.84,46.84,0,0,0,197.21,700.35Z"/><path class="cls-8" d="M238.94,645.3c-.93.92-1.81,1.84-2.63,2.76s-1.77,2.15-2.56,3.21a40.05,40.05,0,0,0-2.47,3.94,31.16,31.16,0,0,0-1.84,4.06,24.18,24.18,0,0,0-1,3.51,23.08,23.08,0,0,0-.57,4c0,.66-.05,1.3,0,1.93s.07,1.3.14,1.93a22.63,22.63,0,0,0,2.23,7.5,13.26,13.26,0,0,1,4.29-3.25,16.63,16.63,0,0,1,5.87-1.33,28.25,28.25,0,0,1,4.27-6.89,38.56,38.56,0,0,1,5.78-5.62c.94-.73,1.92-1.44,2.95-2.13a46.12,46.12,0,0,1,7.82-4.17c1.22-.53,2.47-1,3.77-1.37s2.39-.66,3.64-1a57,57,0,0,0-14.23-5.58A55.23,55.23,0,0,0,238.94,645.3Z"/><path class="cls-9" d="M202.54,668.94c.16.61.32,1.22.49,1.81l.62,1.75c.47,1.28.95,2.5,1.49,3.69a45.26,45.26,0,0,0,4.48,7.7c.73,1,1.46,1.94,2.27,2.85a31.45,31.45,0,0,0,2.87,2.9,26.91,26.91,0,0,0,3.08,2.43,25.24,25.24,0,0,0,3.53,2,19.74,19.74,0,0,0,3.68,1.25,21,21,0,0,1,.84-9,25.84,25.84,0,0,1,1.88-4.62,17.67,17.67,0,0,1,2.39-3.61,22.63,22.63,0,0,1-2.23-7.5c-.07-.63-.11-1.27-.14-1.93s0-1.27,0-1.93a23.08,23.08,0,0,1,.57-4,24.18,24.18,0,0,1,1-3.51,31.16,31.16,0,0,1,1.84-4.06,40.05,40.05,0,0,1,2.47-3.94c.79-1.06,1.64-2.15,2.56-3.21s1.7-1.84,2.63-2.76a45.81,45.81,0,0,0-11,1.89,40.36,40.36,0,0,0-10.59,4.91,43.08,43.08,0,0,0-8.75,7.69c-.62.72-1.17,1.47-1.75,2.21l-.85,1.13-.75,1.15c-.5.76-1,1.54-1.47,2.31Z"/><path class="cls-10" d="M268.55,652.43c-1.25.29-2.47.58-3.64,1s-2.55.84-3.77,1.37a46.12,46.12,0,0,0-7.82,4.17c-1,.69-2,1.4-2.95,2.13a38.56,38.56,0,0,0-5.78,5.62,28.25,28.25,0,0,0-4.27,6.89,27.94,27.94,0,0,1,9.86,1.52,25.68,25.68,0,0,1,4.54,2,17.18,17.18,0,0,1,1.63,1.07l.19.14h0a7.45,7.45,0,0,1,3.18-1.52,9.24,9.24,0,0,1,.92-.1c.34,0,.69.13,1,.19l2.12.45c1.32.28,2.61.69,3.91,1.1s2.62.84,3.94,1.3c1.15.39,2.29.81,3.41,1.25q3.93,1.51,7.92,3.2l3.35,1.46,3,1.36-1.12-3.88c-.38-1.3-.83-2.63-1.24-3.94s-.8-2.6-1.31-4l-1.49-4.05c-.22-.66-.53-1.38-.85-2.11l-.94-2.16-.67-1.54c-.11-.26-.28-.55-.42-.83l-.12-.21,0-.05c-.06,0,0,0-.05,0l-.06-.1-.24-.42a16.93,16.93,0,0,0-1-1.63c-.38-.51-.76-1-1.16-1.52A30.13,30.13,0,0,0,276,657.8c-.47-.43-1-.89-1.42-1.26l-1.28-1c-.82-.64-1.59-1.12-2.4-1.68S269.34,652.89,268.55,652.43Z"/><path class="cls-8" d="M281.68,704.63c-1.07-4.44-2.24-8.87-3.47-13.29l-2.71.77c.54,1.81,1,3.65,1.48,5.48s1,3.66,1.43,5.51Z"/><path class="cls-8" d="M311.79,795l-2.85-1.6-3.17-1.77-7.38-4.1-3.17-1.76-7.31-4-8-4.33q2.13,11.68,4.13,23.43l7-1.19,6.41-1.1,2.77-.47L306.7,797l2.77-.48L312,796Z"/><path class="cls-8" d="M289.68,688.11l-2.45.69-2.71.76-6.31,1.78-2.71.77-6.26,1.76-6.79,1.92.12.4c2.77,1.09,5.48,2.3,8.24,3.49,2.53,1.11,5.09,2.24,7.6,3.42l3.27,1.53c2.55,1.2,5.12,2.42,7.65,3.66l3.26,1.61,3,1.46C293.79,703.65,291.85,695.92,289.68,688.11Z"/><path class="cls-8" d="M302,741.86l-2.9-1.53-3.21-1.69-7.5-3.91-3.22-1.65-7.43-3.78-8.1-4c1.63,7.32,3.14,14.71,4.62,22.11l8,4.18,7.38,3.91,3.2,1.71,7.43,4,3.19,1.73,2.88,1.57C305,757,303.53,749.41,302,741.86Z"/><path class="cls-9" d="M295.54,711.36l-3-1.46-3.26-1.61c-2.53-1.24-5.1-2.46-7.65-3.66l-3.27-1.53c-2.51-1.18-5.07-2.31-7.6-3.42-2.76-1.19-5.47-2.4-8.24-3.49,2.64,9.45,4.93,19.26,7.1,29.1l8.1,4,7.43,3.78,3.22,1.65,7.5,3.91,3.21,1.69,2.9,1.53Q299,726.62,295.54,711.36Z"/><path class="cls-10" d="M306.37,764.51l-2.88-1.57-3.19-1.73-7.43-4-3.2-1.71-7.38-3.91-8-4.18q3,14.94,5.67,30l8,4.33,7.31,4,3.17,1.76,7.38,4.1,3.17,1.77,2.85,1.6C310.06,784.81,308.23,774.66,306.37,764.51Z"/><polygon class="cls-8" points="302.51 811.53 300.23 798.06 297.45 798.53 299.35 809.76 302.51 811.53"/><polygon class="cls-8" points="328.69 902.81 325.88 901.13 322.77 899.28 315.51 894.97 312.39 893.13 305.2 888.88 297.39 884.29 300.84 907.9 307.82 906.9 314.25 905.97 317.04 905.57 323.54 904.64 326.33 904.24 328.84 903.88 328.69 902.81"/><polygon class="cls-8" points="311.97 796.04 309.47 796.47 306.69 796.95 300.23 798.06 297.45 798.53 291.04 799.63 284.09 800.82 284.17 801.25 292.07 805.66 299.35 809.76 302.51 811.53 309.85 815.7 313 817.49 315.84 819.11 311.97 796.04"/><polygon class="cls-8" points="320.72 849.6 317.89 847.96 314.75 846.14 307.44 841.92 304.3 840.11 297.06 835.96 289.19 831.47 292.77 853.98 300.61 858.51 307.83 862.71 310.96 864.53 318.25 868.79 321.38 870.62 324.19 872.28 320.72 849.6"/><path class="cls-9" d="M315.84,819.11,313,817.49l-3.15-1.79-7.34-4.16-3.16-1.78-7.28-4.1-7.9-4.4q2.58,15.09,5,30.21l7.87,4.49,7.24,4.15,3.14,1.81,7.31,4.22,3.14,1.82,2.83,1.64Q318.35,834.34,315.84,819.11Z"/><polygon class="cls-10" points="324.19 872.28 321.38 870.62 318.25 868.79 310.96 864.53 307.83 862.71 300.61 858.51 292.77 853.98 297.39 884.29 305.2 888.88 312.39 893.13 315.51 894.97 322.77 899.28 325.88 901.13 328.69 902.81 324.19 872.28"/><path class="cls-8" d="M319.32,921.71a13.62,13.62,0,0,0,6.08-3.93,14.39,14.39,0,0,0,2.35-3.53,15.39,15.39,0,0,0,1.31-8.82c0-.25-.08-.51-.12-.76h0l-.11-.79-2.51.36-2.79.4-6.5.93-2.79.4-6.43.93-7,1,.11.77h0c0,.26,0,.51.09.77a15.06,15.06,0,0,0,8.78,11.74,13.6,13.6,0,0,0,6.71,1.08l.59-.06A13,13,0,0,0,319.32,921.71Z"/><path class="cls-8" d="M734,695.93h0a1.69,1.69,0,0,1-.09.34c-.34,1.39.13,2.59.86,4.39.15.43.35.9.56,1.41l.61,1.58,1.2,3.08a28.8,28.8,0,0,0,1.58,3.28,15.84,15.84,0,0,0,1.23,1.87l.37.45a9.37,9.37,0,0,0,6,3.4,10.94,10.94,0,0,0,4.36-.4,12.66,12.66,0,0,0,2.27-1,11.84,11.84,0,0,0,2.24-1.47,17.55,17.55,0,0,0,2.08-2,24.19,24.19,0,0,0,1.81-2.42,27.62,27.62,0,0,0,1.41-2.77,23.24,23.24,0,0,0,1-3,8.2,8.2,0,0,0,.23-1.16h0l.21-1.18L755,699.16l-6.41-1.1-2.78-.48-6.47-1.11-2.77-.48-2.51-.43Z"/><path class="cls-8" d="M745.2,684.93a33.36,33.36,0,0,1,.94,6.34,27.09,27.09,0,0,1-.35,6.31l2.78.48a32.83,32.83,0,0,0-.16-11.53A32,32,0,0,0,745.2,684.93Z"/><path class="cls-8" d="M697,694.8l-1.9-2.59L693,689.3c-1.58-2.24-3.14-4.53-4.68-6.89-.68-1-1.31-2-1.93-3-.72-1.19-1.43-2.4-2.13-3.64s-1.42-2.48-2-3.79l-1-2.16-.48-1.11c-.12-.46-.24-.93-.35-1.41a9.58,9.58,0,0,1-.25-1.5c0-.49-.07-1-.09-1.57a19.79,19.79,0,0,1,.12-3.26,17.13,17.13,0,0,0-1.68,2.45l-.37.65c-.07.1-.1.23-.21.3l-.18.33c-.25.45-.42.84-.6,1.25l-1.58,3.66-.36.84-.29.79-.58,1.57-1.15,3.16-2,6.14c-.62,2-1.17,4-1.76,6.05l6.78,1.91,6.26,1.77,2.71.76,6.32,1.78,2.71.77,2.44.69Z"/><path class="cls-8" d="M734,695.56l2.51.43,2.77.48,6.47,1.11,2.78.48,6.41,1.1,6.94,1.19.12-.66a38.09,38.09,0,0,0-3.07-4.4,37.05,37.05,0,0,0-3.49-3.67,37.94,37.94,0,0,0-7.07-5.09,32,32,0,0,0-3.21-1.6,36.93,36.93,0,0,0-7.61-2.43c-1.1-.22-2.21-.37-3.27-.49-.49-.06-1-.1-1.44-.13s-1,0-1.44,0C733.76,686.26,734.76,691.86,734,695.56Z"/><path class="cls-8" d="M718.83,673.56q.66-1.21,1.47-2.43a29.59,29.59,0,0,1,1.93-2.56,26.49,26.49,0,0,1,5.89-5.14,24.36,24.36,0,0,1,3.14-1.72,26.64,26.64,0,0,1,4-1.5c.71-.2,1.44-.38,2.19-.55s1.48-.25,2.25-.35a36.44,36.44,0,0,1,10.55.23,41.58,41.58,0,0,0-13.85-10.38,44.94,44.94,0,0,0-16.27-3.86,42.51,42.51,0,0,0-7.09,7.26,43.51,43.51,0,0,0-4.58,7.34c-.53,1.1-1,2.2-1.45,3.29a39.21,39.21,0,0,0-2.16,7.73,30.69,30.69,0,0,0-.37,3.26,27.23,27.23,0,0,0,0,2.86,29.28,29.28,0,0,1,3.32-1.55,31.58,31.58,0,0,1,3.69-1.16A26.41,26.41,0,0,1,718.83,673.56Z"/><path class="cls-9" d="M731.44,681.87c.47,0,1,0,1.44,0s1,.07,1.44.13c1.06.12,2.17.27,3.27.49a36.93,36.93,0,0,1,7.61,2.43,32,32,0,0,1,3.21,1.6,37.94,37.94,0,0,1,7.07,5.09,37.05,37.05,0,0,1,3.49,3.67,38.09,38.09,0,0,1,3.07,4.4,49,49,0,0,0-1.69-21.41,53.78,53.78,0,0,0-3.9-9.61,46.36,46.36,0,0,0-6.16-9.13,36.44,36.44,0,0,0-10.55-.23c-.77.1-1.52.21-2.25.35s-1.48.35-2.19.55a26.64,26.64,0,0,0-4,1.5,24.36,24.36,0,0,0-3.14,1.72,26.49,26.49,0,0,0-5.89,5.14,29.59,29.59,0,0,0-1.93,2.56q-.81,1.22-1.47,2.43a14.92,14.92,0,0,1,7.47,2.23,14.07,14.07,0,0,1,2.75,2.43c.22.25.41.55.63.81l.32.4.29.47.6.92Z"/><path class="cls-10" d="M704.53,677a27.23,27.23,0,0,1,0-2.86,30.69,30.69,0,0,1,.37-3.26,39.21,39.21,0,0,1,2.16-7.73c.43-1.09.92-2.19,1.45-3.29a43.51,43.51,0,0,1,4.58-7.34,42.51,42.51,0,0,1,7.09-7.26,55.9,55.9,0,0,0-20.38,3,54,54,0,0,0-9.47,4.26,43,43,0,0,0-4.78,3.18c-.39.31-.85.65-1.31,1s-1,.85-1.43,1.29a29,29,0,0,0-2.6,2.82,19.79,19.79,0,0,0-.12,3.26c0,.54.08,1.08.09,1.57a9.58,9.58,0,0,0,.25,1.5c.11.48.23,1,.35,1.41l.48,1.11,1,2.16c.59,1.31,1.31,2.56,2,3.79s1.41,2.45,2.13,3.64c.62,1,1.25,2,1.93,3,1.54,2.36,3.1,4.65,4.68,6.89l2.09,2.91,1.9,2.59,1-3.51c.34-1.15.72-2.26,1.08-3.39s.7-2.31,1.1-3.34l1.15-3.16c.19-.56.39-1,.59-1.46l.6-1.37.1-.25h0l.24-.18c.17-.16.51-.34.74-.53Z"/><path class="cls-8" d="M681.77,705.7c1.07-4.41,2.23-8.79,3.44-13.15l-2.71-.76c-.54,1.82-1,3.67-1.49,5.5s-1,3.67-1.43,5.52Z"/><path class="cls-8" d="M675.23,799.76l-2.16-2.44-2.39-2.71-5.56-6.35-2.37-2.72-5.49-6.32-5.92-6.88q-2.16,11.85-4.18,23.7l7,1.19,6.41,1.1,2.78.48,6.47,1.11,2.77.47,2.51.43Z"/><path class="cls-8" d="M696.68,695.79l-2.44-.69-2.71-.77-6.32-1.78-2.71-.76L676.24,690l-6.78-1.91-.13.44c1.7,2.56,3.51,5,5.28,7.51,1.64,2.28,3.27,4.52,5,6.75l2.19,2.89c1.71,2.23,3.4,4.43,5.14,6.64l2.24,2.83,2,2.54C692.85,710.27,694.7,702.94,696.68,695.79Z"/><path class="cls-8" d="M684.86,747.38l-2.1-2.49-2.31-2.77-5.38-6.49-2.29-2.8-5.28-6.5-5.66-7.12c-1.68,7.57-3.22,15.12-4.73,22.67l5.81,7,5.38,6.4,2.33,2.76,5.48,6.42,2.35,2.74,2.13,2.46Q682.66,758.49,684.86,747.38Z"/><path class="cls-9" d="M691.17,717.71l-2-2.54-2.24-2.83c-1.74-2.21-3.43-4.41-5.14-6.64l-2.19-2.89c-1.7-2.23-3.33-4.47-5-6.75-1.77-2.47-3.58-4.95-5.28-7.51-2.87,10.31-5.24,20.48-7.49,30.66l5.66,7.12,5.28,6.5,2.29,2.8,5.38,6.49,2.31,2.77,2.1,2.49Q687.8,732.43,691.17,717.71Z"/><path class="cls-10" d="M680.59,769.65l-2.13-2.46-2.35-2.74L670.63,758l-2.33-2.76-5.38-6.4-5.81-7q-3,15.24-5.77,30.46l5.92,6.88,5.49,6.32,2.37,2.72,5.56,6.35,2.39,2.71,2.16,2.44C676.94,789.7,678.75,779.67,680.59,769.65Z"/><polygon class="cls-8" points="661.01 812.27 663.3 798.81 660.52 798.33 658.62 809.56 661.01 812.27"/><polygon class="cls-8" points="658.45 906.83 656.23 904.45 653.77 901.8 648.03 895.61 645.57 892.95 639.9 886.81 633.77 880.13 630.3 903.88 637.27 904.88 643.71 905.8 646.5 906.2 653 907.14 655.78 907.54 658.3 907.9 658.45 906.83"/><polygon class="cls-8" points="675.04 800.82 672.54 800.39 669.77 799.92 663.3 798.81 660.52 798.33 654.11 797.23 647.16 796.04 647.09 796.48 653.08 803.29 658.62 809.56 661.01 812.27 666.63 818.57 669.04 821.26 671.21 823.69 675.04 800.82"/><polygon class="cls-8" points="666.37 853.96 664.18 851.55 661.75 848.87 656.09 842.61 653.66 839.93 648.07 833.71 642.02 826.95 638.42 849.62 644.51 856.34 650.13 862.53 652.57 865.2 658.27 871.42 660.71 874.09 662.92 876.49 666.37 853.96"/><path class="cls-9" d="M671.21,823.69,669,821.26l-2.41-2.69-5.61-6.3-2.4-2.71-5.54-6.27-6-6.81Q644.48,811.71,642,827l6.05,6.76,5.59,6.22,2.43,2.68,5.66,6.26,2.43,2.68,2.19,2.41Q668.73,838.81,671.21,823.69Z"/><polygon class="cls-10" points="662.92 876.49 660.71 874.09 658.27 871.42 652.57 865.2 650.13 862.53 644.51 856.34 638.42 849.62 633.77 880.13 639.9 886.81 645.57 892.95 648.03 895.61 653.77 901.8 656.23 904.45 658.45 906.83 662.92 876.49"/><path class="cls-8" d="M644.22,922.32a13.91,13.91,0,0,0,6.93-2.11,14.67,14.67,0,0,0,3.22-2.73,15.37,15.37,0,0,0,3.71-8l.09-.77h0l.11-.77-2.52-.36-2.78-.4-6.5-.94-2.79-.4-6.44-.92-7-1-.12.79h0c-.05.25-.09.51-.13.76a15.09,15.09,0,0,0,5.18,13.8,13.33,13.33,0,0,0,6.16,2.87l.59.1A13.9,13.9,0,0,0,644.22,922.32Z"/><path class="cls-5" d="M705,551.15c-8.43,0-172.75-181.71-183.37-202.52-.16-.77-.35-1.53-.56-2.28-.38-21.38-16.91-29.92-38-30.9-.9-.06-1.81-.1-2.73-.1h-1.52c-.92,0-1.83,0-2.73.1-21.13,1-37.67,9.52-38,30.9q-.32,1.13-.57,2.28c-10.61,20.81-174.94,202.52-183.36,202.52-23.37,0-42.31,29.52-42.31,52.89a42.31,42.31,0,1,0,75.34-26.43A42.31,42.31,0,0,0,343.7,516a42.3,42.3,0,0,0,56.55-61.6,42.28,42.28,0,0,0,57.81-59.89A42.09,42.09,0,0,0,478.81,400l.76,0c.25,0,.5,0,.76,0a42.09,42.09,0,0,0,20.75-5.44,42.29,42.29,0,0,0,57.81,59.89A42.31,42.31,0,0,0,615.44,516,42.31,42.31,0,0,0,672,577.61,42.31,42.31,0,1,0,747.34,604C747.34,580.67,728.4,551.15,705,551.15Z"/><path class="cls-6" d="M705,551.55a2.65,2.65,0,0,1-1.19-.43,9.77,9.77,0,0,1-.93-.59c-.6-.42-1.17-.86-1.73-1.31-1.11-.91-2.19-1.85-3.26-2.8-2.12-1.91-4.2-3.88-6.25-5.86-4.1-4-8.13-8-12.13-12.07-8-8.15-15.86-16.4-23.74-24.65s-15.67-16.58-23.44-24.92-15.57-16.68-23.31-25.06q-23.2-25.16-46-50.65c-7.59-8.53-15.15-17.08-22.56-25.78-3.7-4.36-7.38-8.74-11-13.2-1.81-2.23-3.6-4.48-5.35-6.79-.88-1.15-1.74-2.32-2.59-3.53A38.16,38.16,0,0,1,519,350a2.75,2.75,0,0,1-.21-.51l0-.21-.55-2.11a3.59,3.59,0,0,1-.11-.72v0A28.07,28.07,0,0,0,515,333.72a23.94,23.94,0,0,0-8.93-9.08,39.09,39.09,0,0,0-12.63-4.57c-1.14-.18-2.27-.4-3.41-.56l-3.46-.39-3.52-.24-1.71-.06c-.56,0-1.13,0-1.75,0s-1.19,0-1.75,0l-1.71.07-3.52.26-3.45.42c-1.14.19-2.26.41-3.4.61a38.55,38.55,0,0,0-12.49,4.7,23.66,23.66,0,0,0-8.68,9,27.59,27.59,0,0,0-2.95,12.48,3.42,3.42,0,0,1-.1.79l0,.1-.52,2.08,0,.16a3.36,3.36,0,0,1-.27.71,39.15,39.15,0,0,1-2.32,3.76c-.78,1.15-1.58,2.26-2.38,3.35-1.61,2.18-3.25,4.31-4.91,6.41q-5,6.3-10.08,12.42c-6.79,8.2-13.75,16.22-20.72,24.24-13.95,16-28.18,31.78-42.49,47.45s-28.81,31.18-43.4,46.6q-11,11.56-22,23c-7.41,7.6-14.86,15.17-22.53,22.55-1.92,1.84-3.86,3.67-5.83,5.47s-4,3.59-6.14,5.28A20,20,0,0,1,256,552a5.37,5.37,0,0,1-1.28.58,3.09,3.09,0,0,1-.64.09h-.24l-.47,0a26.13,26.13,0,0,0-3.75.34,28.56,28.56,0,0,0-7.23,2.18A41.45,41.45,0,0,0,230,564.11a57.68,57.68,0,0,0-9.23,12.46,64.39,64.39,0,0,0-5.88,14.4,55.29,55.29,0,0,0-1.49,7.63,38.36,38.36,0,0,0-.24,7.72,40.64,40.64,0,0,0,3.65,14.9,40.87,40.87,0,0,0,64.9,13,40.59,40.59,0,0,0,13-27,39.92,39.92,0,0,0-1.76-15.09,40.8,40.8,0,0,0-7.21-13.33,1.83,1.83,0,0,1,2.43-2.68h0a40.17,40.17,0,0,0,51.92-6.63,39.75,39.75,0,0,0,1.38-51.65,2.86,2.86,0,0,1,3.79-4.2l0,0a39.31,39.31,0,0,0,26.59,6.11,38.9,38.9,0,0,0,24-12.56,38.88,38.88,0,0,0,1.53-50.51,3.61,3.61,0,0,1,4.81-5.27h0A38.54,38.54,0,0,0,451.45,446a38.38,38.38,0,0,0,3.35-49.09A4,4,0,0,1,460,391l0,0a38.14,38.14,0,0,0,9.41,3.72,36.73,36.73,0,0,0,5,.89c.84.1,1.68.16,2.53.2.42,0,.84,0,1.27,0s.86,0,1.34,0,.93,0,1.34,0,.85,0,1.27,0c.84,0,1.69-.11,2.52-.22a36.67,36.67,0,0,0,5-.92A38.52,38.52,0,0,0,499,390.9a4.17,4.17,0,0,1,5.46,6l0,0a38.8,38.8,0,0,0-5.73,11.89A37.23,37.23,0,0,0,497.45,422,37.77,37.77,0,0,0,508,445.66a38,38,0,0,0,48.5,5.22h0a4.26,4.26,0,0,1,5.69,6.22,38.19,38.19,0,0,0,25.15,61.76,38.29,38.29,0,0,0,25.93-6l0,0a3.84,3.84,0,0,1,5.1,5.62,38.94,38.94,0,0,0,1.37,50.34,39.42,39.42,0,0,0,50.74,6.69l.06,0a2.6,2.6,0,0,1,3.42,3.83A39.6,39.6,0,0,0,665,604.87a40.56,40.56,0,0,0,20.31,34.75,41.26,41.26,0,0,0,13.28,4.76,40.45,40.45,0,0,0,14.18,0,41.65,41.65,0,0,0,24.31-14.1,41.18,41.18,0,0,0,7.1-12.45,43.4,43.4,0,0,0,2.48-14.16,46,46,0,0,0-.58-7.22,54,54,0,0,0-1.56-7.11,63.17,63.17,0,0,0-5.61-13.43,59.64,59.64,0,0,0-8.53-11.79,52,52,0,0,0-5.34-4.94,41.22,41.22,0,0,0-6.08-4A30.21,30.21,0,0,0,705,551.55Zm0-.8a31.19,31.19,0,0,1,14.31,3.65,43.44,43.44,0,0,1,6.24,4,52,52,0,0,1,5.48,5A65.25,65.25,0,0,1,745.62,589a55.81,55.81,0,0,1,1.7,7.23,49.71,49.71,0,0,1,.71,7.42,44.56,44.56,0,0,1-2.37,14.7,43,43,0,0,1-7.2,13.09A43.89,43.89,0,0,1,713.2,646.8a43.16,43.16,0,0,1-15.08.36,44.11,44.11,0,0,1-14.4-4.73A43.37,43.37,0,0,1,671.78,633,44.54,44.54,0,0,1,670,576l3.48,3.8a45.18,45.18,0,0,1-58.58-6.48,46.07,46.07,0,0,1-8.79-13.51,44.47,44.47,0,0,1-3.5-15.79,45.66,45.66,0,0,1,9.86-30.39l5.14,5.6a46.13,46.13,0,0,1-59.81-7,46.77,46.77,0,0,1-8.83-13.77,45.24,45.24,0,0,1-3.44-16,46.11,46.11,0,0,1,10.06-30.66l5.7,6.21a46.36,46.36,0,0,1-30.85,7.6,47,47,0,0,1-28.53-14,46.37,46.37,0,0,1-12.92-29,44.85,44.85,0,0,1,1.65-16,46.77,46.77,0,0,1,7.09-14.45l5.43,6.07a46.38,46.38,0,0,1-17.49,5.62c-1,.12-2.05.19-3.07.24-.51,0-1,0-1.54,0s-1,0-1.46,0-.94,0-1.46,0-1,0-1.54-.05c-1-.05-2.05-.14-3.07-.26a47.56,47.56,0,0,1-6-1.12A46.48,46.48,0,0,1,456.08,398l5.23-5.85a46.69,46.69,0,0,1,7,14.43,45,45,0,0,1,1.56,15.94,45.92,45.92,0,0,1-12.9,28.73A46.47,46.47,0,0,1,428.67,465a46,46,0,0,1-30.43-7.58l4.83-5.27a45.46,45.46,0,0,1,9.86,30.24,44.51,44.51,0,0,1-3.41,15.76,45.8,45.8,0,0,1-8.73,13.52,45.28,45.28,0,0,1-28.18,14.24,14.84,14.84,0,0,1-2,.16l-2,.09a31.55,31.55,0,0,1-4,0,44.33,44.33,0,0,1-7.93-1.22,44.94,44.94,0,0,1-14.56-6.51l3.83-4.17A44.62,44.62,0,0,1,355.49,544a43.51,43.51,0,0,1-3.4,15.42,45.22,45.22,0,0,1-8.59,13.21,44.39,44.39,0,0,1-57.38,6.53l2.45-2.66a44.64,44.64,0,0,1,7.61,14.61,43.46,43.46,0,0,1,1.65,16.34,44.47,44.47,0,0,1-4.4,15.78,43.9,43.9,0,0,1-23.74,21.57,44.45,44.45,0,0,1-16.05,2.83,43.6,43.6,0,0,1-42.95-41.14,41.19,41.19,0,0,1,.23-8.16,58.49,58.49,0,0,1,1.52-8,66.6,66.6,0,0,1,6.06-15A62.83,62.83,0,0,1,228,562.21a44.27,44.27,0,0,1,13.19-9.64,31.67,31.67,0,0,1,7.93-2.49,29.17,29.17,0,0,1,4.17-.42l.52,0h.26a.39.39,0,0,0-.16,0,2.58,2.58,0,0,0,.51-.27,15.42,15.42,0,0,0,1.47-1,153.68,153.68,0,0,0,11.52-10.69c7.47-7.48,14.76-15.17,22-22.9S303.87,499.2,311,491.36q21.42-23.49,42.39-47.4t41.7-48q10.32-12.08,20.42-24.3c3.37-4.08,6.7-8.17,9.94-12.31,1.62-2.06,3.22-4.14,4.76-6.23.76-1.05,1.51-2.1,2.22-3.14a31.6,31.6,0,0,0,1.85-3l-.31.87.61-2.47-.13.89a34.56,34.56,0,0,1,3.76-15.71,30.77,30.77,0,0,1,11.37-11.74,45.4,45.4,0,0,1,14.76-5.48c1.26-.22,2.53-.46,3.8-.65l3.81-.45,3.77-.25,1.95-.07c.65,0,1.31,0,1.9,0s1.24,0,1.9,0l1.95.09,3.77.27,3.8.48c1.26.21,2.52.47,3.78.7a45.63,45.63,0,0,1,14.64,5.6,30.42,30.42,0,0,1,11.1,11.71,34.05,34.05,0,0,1,3.59,15.5l-.11-.75.58,2.45-.26-.72a34.1,34.1,0,0,0,2,3.33c.76,1.14,1.57,2.28,2.39,3.42,1.64,2.27,3.35,4.53,5.07,6.77,3.47,4.48,7,8.92,10.6,13.34q10.77,13.25,21.81,26.3,22,26.12,44.67,51.78,11.31,12.82,22.74,25.55T656.69,503q11.59,12.56,23.52,24.82c4,4.08,8,8.13,12.06,12.11,2.05,2,4.11,3.95,6.21,5.86,1.06,1,2.12,1.89,3.22,2.78.55.45,1.1.89,1.67,1.29.29.2.58.39.87.55A2,2,0,0,0,705,550.75Z"/><path class="cls-5" d="M657.81,208.39c-6.71,0-137.47-144.61-145.93-161.17-.13-.61-.28-1.21-.44-1.81-.3-17-13.46-23.82-30.28-24.6-.71,0-1.44-.07-2.17-.07h-1.21c-.73,0-1.45,0-2.17.07-16.81.78-30,7.58-30.27,24.6-.17.6-.32,1.2-.45,1.81C436.44,63.78,305.67,208.39,299,208.39c-18.6,0-33.67,23.49-33.67,42.08a33.67,33.67,0,1,0,59.95-21,33.66,33.66,0,0,0,45-49,33.67,33.67,0,0,0,45-49,33.64,33.64,0,0,0,46-47.66,33.53,33.53,0,0,0,16.51,4.33l.61,0c.2,0,.4,0,.6,0a33.56,33.56,0,0,0,16.52-4.33,33.65,33.65,0,0,0,46,47.66,33.67,33.67,0,0,0,45,49,33.67,33.67,0,0,0,45,49,33.67,33.67,0,1,0,60,21C691.47,231.88,676.4,208.39,657.81,208.39Z"/><path class="cls-6" d="M657.81,208.79a2.16,2.16,0,0,1-1-.36,8,8,0,0,1-.75-.47c-.48-.34-.93-.69-1.38-1.05-.89-.72-1.75-1.47-2.6-2.23-1.69-1.52-3.34-3.08-5-4.66-3.27-3.15-6.47-6.37-9.66-9.61-6.35-6.48-12.62-13-18.91-19.59s-12.49-13.17-18.69-19.8-12.43-13.24-18.61-19.89c-12.35-13.31-24.66-26.66-36.79-40.19-6.06-6.77-12.1-13.56-18-20.47-3-3.46-5.9-6.93-8.79-10.48-1.44-1.78-2.87-3.57-4.28-5.41-.7-.92-1.4-1.85-2.08-2.82a29.42,29.42,0,0,1-2-3.19,2.3,2.3,0,0,1-.2-.49l-.06-.23-.43-1.64a2.83,2.83,0,0,1-.11-.7v0A21.67,21.67,0,0,0,506,35.65a18.38,18.38,0,0,0-6.89-6.95,30.17,30.17,0,0,0-9.84-3.53c-.89-.15-1.78-.31-2.67-.44l-2.72-.3-2.78-.18c-.92,0-1.72-.09-2.71-.06s-1.8,0-2.72.08l-2.77.21-2.71.34c-.89.14-1.77.32-2.66.48A30.25,30.25,0,0,0,457.81,29a18.07,18.07,0,0,0-6.62,6.92,21.23,21.23,0,0,0-2.27,9.6,3.5,3.5,0,0,1-.1.8l0,.1-.4,1.61,0,.16a3.36,3.36,0,0,1-.27.71,30.13,30.13,0,0,1-1.89,3.07c-.63.93-1.27,1.82-1.91,2.69-1.29,1.74-2.6,3.44-3.92,5.12-2.64,3.35-5.33,6.63-8,9.9-5.4,6.52-11,12.9-16.52,19.27-11.12,12.75-22.47,25.26-33.89,37.72s-23,24.75-34.64,37S323.9,188,311.69,199.78Q309.4,202,307,204.12c-1.58,1.44-3.15,2.86-4.91,4.22-.45.33-.9.67-1.45,1a4.88,4.88,0,0,1-1.1.49,2.7,2.7,0,0,1-.6.09h-.18l-.37,0a20.83,20.83,0,0,0-2.94.25,22.4,22.4,0,0,0-5.68,1.71,32.89,32.89,0,0,0-9.83,7,45.4,45.4,0,0,0-7.31,9.85,51.17,51.17,0,0,0-4.66,11.4,37.87,37.87,0,0,0-1.38,12.13A32.17,32.17,0,0,0,269.5,264a32.43,32.43,0,0,0,29.12,18.81,32.24,32.24,0,0,0,22.11-8.61A31.89,31.89,0,0,0,330.93,253a31.46,31.46,0,0,0-1.41-11.89,32.13,32.13,0,0,0-5.69-10.47,1.83,1.83,0,0,1,2.42-2.69l0,0a31.52,31.52,0,0,0,21.46,4.89A31.2,31.2,0,0,0,367,222.63a31.11,31.11,0,0,0,1-40.41A2.86,2.86,0,0,1,371.8,178l.06,0a30.69,30.69,0,0,0,20.75,4.72,30.35,30.35,0,0,0,18.7-9.83,30.26,30.26,0,0,0,1.14-39.27,3.61,3.61,0,0,1,4.8-5.28l0,0a29.93,29.93,0,0,0,38.17-4.27,29.64,29.64,0,0,0,8.18-18.59A29.25,29.25,0,0,0,458,86.1a4,4,0,0,1,5.19-5.88l0,0a29.35,29.35,0,0,0,11.15,3.55c.65.08,1.3.13,2,.15.33,0,.65,0,1,0s.67,0,1.06,0,.74,0,1.05,0,.66,0,1,0c.66,0,1.31-.08,2-.16a31.29,31.29,0,0,0,3.84-.72,29.59,29.59,0,0,0,7.24-2.94,4.17,4.17,0,0,1,5.46,6l0,0a29.87,29.87,0,0,0-4.43,9.2,28.91,28.91,0,0,0-1,10.14,29.21,29.21,0,0,0,8.17,18.3,29.42,29.42,0,0,0,37.48,4l0,0a4.27,4.27,0,0,1,5.68,6.23,29.54,29.54,0,0,0,19.43,47.78,29.69,29.69,0,0,0,20.1-4.63l0,0a3.84,3.84,0,0,1,5.09,5.63,30.27,30.27,0,0,0,1,39.1,30.75,30.75,0,0,0,39.57,5.35l.08-.05a2.59,2.59,0,0,1,3.4,3.84,31,31,0,0,0-7.17,20.05,31.92,31.92,0,0,0,15.87,27.38,32.38,32.38,0,0,0,10.45,3.79,31.87,31.87,0,0,0,11.19,0,32.27,32.27,0,0,0,24.89-20.94,34.14,34.14,0,0,0,2-11.21,41.81,41.81,0,0,0-1.68-11.36,50,50,0,0,0-11.2-20,34.52,34.52,0,0,0-9.06-7.08A23.94,23.94,0,0,0,657.81,208.79Zm0-.8a24.85,24.85,0,0,1,11.42,2.9,35.56,35.56,0,0,1,9.36,7.2,52,52,0,0,1,11.63,20.37,42.83,42.83,0,0,1,1.94,11.69,35.64,35.64,0,0,1-1.86,11.76,34.52,34.52,0,0,1-5.74,10.47,35,35,0,0,1-20.2,12.37,34.63,34.63,0,0,1-12.1.32A35.41,35.41,0,0,1,622,251.21a35.78,35.78,0,0,1,7.52-23.4L633,231.6a36.54,36.54,0,0,1-47.41-5.13,37.11,37.11,0,0,1-2-48.45l5.14,5.6A37.48,37.48,0,0,1,540,178a38.31,38.31,0,0,1-7.19-11.2,36.61,36.61,0,0,1-2.81-13,37.56,37.56,0,0,1,8.18-25l5.7,6.21a37.7,37.7,0,0,1-25.12,6.2,38.27,38.27,0,0,1-23.25-11.39A37.71,37.71,0,0,1,485,106.13a37.3,37.3,0,0,1,7.13-24.83l5.43,6.08a37.63,37.63,0,0,1-14.25,4.56c-.83.1-1.66.16-2.5.19-.41,0-.83,0-1.25,0s-.81,0-1.17,0-.75,0-1.18,0-.83,0-1.25,0c-.83,0-1.67-.11-2.49-.21a36,36,0,0,1-4.93-.92,37.32,37.32,0,0,1-9.25-3.74l5.23-5.85a38,38,0,0,1,5.67,11.75,36.65,36.65,0,0,1,1.25,13,37.4,37.4,0,0,1-58.19,28.31l4.84-5.26a37,37,0,0,1-24.75,59.78,36.37,36.37,0,0,1-24.68-6.12l3.84-4.18a36.12,36.12,0,0,1,7.68,24.05A35.86,35.86,0,0,1,324.24,231l2.44-2.66a35.76,35.76,0,0,1,6.1,11.76,34.72,34.72,0,0,1,1.3,13.13,35.21,35.21,0,0,1-22.62,29.95,35.77,35.77,0,0,1-12.87,2.26,35,35,0,0,1-34.43-33,40.41,40.41,0,0,1,1.4-12.92,52.92,52.92,0,0,1,4.84-12A50.54,50.54,0,0,1,278,217a35.38,35.38,0,0,1,10.58-7.74,24.88,24.88,0,0,1,9.74-2.37l.42,0H299a.62.62,0,0,0-.21,0s.17-.08.33-.18a13,13,0,0,0,1.14-.81,122.65,122.65,0,0,0,9.12-8.5c11.82-12,23.21-24.42,34.55-36.89s22.5-25.13,33.62-37.81,22.16-25.44,33.11-38.24C416.1,78,421.5,71.57,426.85,65.1c2.68-3.24,5.33-6.5,7.9-9.78,1.28-1.64,2.55-3.29,3.76-5,.61-.82,1.2-1.65,1.76-2.47a26,26,0,0,0,1.43-2.31l-.31.87.49-2-.13.9a28.09,28.09,0,0,1,3.08-12.84,25.25,25.25,0,0,1,9.31-9.62,37.29,37.29,0,0,1,12-4.44c1-.17,2.05-.37,3.07-.52l3.06-.36,3-.2c1,0,2.16-.09,3.11-.07s2.08.06,3.1.1l3,.23,3.06.39c1,.16,2,.37,3.06.56a36.9,36.9,0,0,1,11.84,4.57,24.93,24.93,0,0,1,9.06,9.58,27.56,27.56,0,0,1,2.9,12.63l-.1-.75.46,2-.26-.72a27,27,0,0,0,1.56,2.59c.6.9,1.23,1.8,1.88,2.71,1.29,1.8,2.64,3.6,4,5.38,2.74,3.57,5.56,7.11,8.4,10.63q8.52,10.56,17.27,21,17.48,20.83,35.41,41.32,9,10.23,18,20.38T619.43,170q9.21,10,18.69,19.78c3.17,3.25,6.35,6.47,9.6,9.64,1.62,1.58,3.26,3.14,4.93,4.66.84.76,1.69,1.5,2.56,2.21.43.36.87.71,1.32,1a7.77,7.77,0,0,0,.68.44A1.94,1.94,0,0,0,657.81,208Z"/><path class="cls-3" d="M389.74,264.12c4.89-4.83,4.55-13.75-.43-18.48s-13.55-4.8-18.87-.44-7,12.42-4.3,18.74c1.64,3.81,4.59,6.86,7.22,10.06,6.49,7.87,12.74,16.76,14.23,26.85,2.63,17.78-10.62,31.64-19.76,33.14-25.13,4.14-26.38-15.89-25.05-21.63,2.52-10.87,14.68-10.56,18.92-6.47"/><path class="cls-3" d="M569.58,264.12c-4.89-4.83-4.55-13.75.43-18.48s13.56-4.8,18.87-.44,7,12.42,4.31,18.74c-1.64,3.81-4.59,6.86-7.23,10.06-6.49,7.87-12.74,16.76-14.23,26.85-2.63,17.78,10.62,31.64,19.77,33.14,25.13,4.14,26.37-15.89,25-21.63-2.52-10.87-14.68-10.56-18.92-6.47"/><path class="cls-4" d="M136.16,672.12c-6.78,0-14.93-5.33-21.42-14-6.49,8.62-14.64,14-21.43,14A11.4,11.4,0,0,1,86.54,670c-7.29-5.3-6.19-18,2.54-30.47-14.38-4.93-22.75-14.58-20-23.16.88-2.72,4.29-9.06,16.82-9.06a45,45,0,0,1,12.94,2.06c.25-15.2,6.84-26.14,15.86-26.14s15.61,10.94,15.85,26.14a45,45,0,0,1,12.95-2.06c12.52,0,15.93,6.34,16.82,9.06,2.78,8.58-5.59,18.23-20,23.16,8.74,12.45,9.84,25.17,2.54,30.47a11.35,11.35,0,0,1-6.77,2.12Z"/><rect class="cls-4" x="78.92" y="878.78" width="71.64" height="46.22"/><path class="cls-4" d="M215.29,850.56l-33.16-34L172,806.19c26-.12,42.18-16.8,29.15-30.15l-28.49-29.2-3.87-4h2.94c26.15,0,42.49-16.75,29.42-30.15l-28.49-29.2-28.49-29.2c-13.08-13.4-45.77-13.4-58.84,0l-28.49,29.2-28.5,29.2c-13.07,13.4,3.27,30.15,29.42,30.15h2.94l-3.86,4L28.33,776c-13,13.35,3.16,30,29.15,30.15L47.34,816.58l-33.16,34C-1,866.16,18,885.65,48.42,885.65H181.06C211.49,885.65,230.51,866.16,215.29,850.56Z"/><path class="cls-3" d="M48.42,875.65c-9.83,0-16.63-2.29-20.6-4.22-4.3-2.08-7.51-4.88-8.61-7.48-.37-.88-1.24-3,2.13-6.4l59.77-61.26-23.58-.1c-13.63-.06-22-5.42-23.58-9.21-.25-.58-.7-1.66,1.54-4l48.93-50.15H57.75c-13.74,0-22.19-5.38-23.8-9.2-.25-.58-.7-1.67,1.54-4l57-58.4c4.16-4.28,12.9-17,22.26-17s18.09,12.76,22.26,17l57,58.4c2.25,2.29,1.79,3.38,1.54,4-1.61,3.82-10.05,9.2-23.8,9.2H145.05L194,783c2.24,2.29,1.79,3.37,1.55,4-1.59,3.79-9.95,9.15-23.58,9.21l-23.58.1,59.77,61.26c3.37,3.45,2.5,5.52,2.13,6.4-1.1,2.6-4.32,5.4-8.61,7.48-4,1.93-10.77,4.22-20.6,4.22Z"/><line class="cls-3" x1="88.92" y1="619.82" x2="114.74" y2="627.67"/><line class="cls-3" x1="114.74" y1="600.5" x2="114.74" y2="627.67"/><line class="cls-3" x1="140.55" y1="619.01" x2="114.74" y2="627.67"/><line class="cls-3" x1="96.5" y1="640.75" x2="114.74" y2="627.67"/><line class="cls-3" x1="133.53" y1="640.75" x2="114.74" y2="627.67"/><rect class="cls-3" x="95.06" y="869.51" width="39.35" height="51.64" transform="translate(1010.06 780.59) rotate(90)"/><circle class="cls-4" cx="841.92" cy="843.88" r="84.86"/><circle class="cls-4" cx="841.92" cy="738.42" r="44.34"/><path class="cls-3" d="M855,770.18a34.34,34.34,0,1,0-26.08,0,74.86,74.86,0,1,0,26.08,0Z"/><path class="cls-6" d="M847.63,678.54,838.29,693c-3,4.73-.5,11.18,5.32,13.4l17.11,6.54c6.06,2.32,12.46-1.14,13-7l1.51-17.46c.35-4.09-2.36-8.08-6.58-9.7l-9.28-3.55C854.89,673.52,850,674.91,847.63,678.54Z"/><path class="cls-6" d="M786.17,750.32c-2.91.85-4.53,4.53-4.32,9l-.36-.36c-10.13-9.66-23.3-12.31-29.4-5.91s-2.83,19.42,7.3,29.08,18.29,17.56,24.4,11.16c3.39-3.55,14.26-14.53,14.49-15.19,1.56-4.59-2.46-9.07-4.29-15.3S790,749.2,786.17,750.32Z"/><path class="cls-6" d="M898.72,755.73c2.91.86,4.53,4.54,4.31,9l.37-.36c10.13-9.67,23.29-12.32,29.4-5.92s2.83,19.42-7.3,29.09-18.3,17.56-24.4,11.16c-3.39-3.56-14.26-14.53-14.49-15.19-1.56-4.59,2.46-9.08,4.29-15.3S894.91,754.62,898.72,755.73Z"/><path class="cls-3" d="M827.55,729.3l.52.74"/><path class="cls-3" d="M859.2,731.54l.51.74"/><path class="cls-3" d="M833.41,748.53c7.13,3.09,9.23,3.51,18.46.91"/><path class="cls-12" d="M741.87,965.34h130c19.43,0,35.18-14.44,35.18-32.25s-15.75-32.26-35.18-32.26c-14.66,0-27.22,8.23-32.51,19.92-5.28-11.69-17.84-19.92-32.51-19.92s-27.22,8.23-32.5,19.92c-5.29-11.69-17.85-19.92-32.51-19.92-19.43,0-35.19,14.44-35.19,32.26S722.44,965.34,741.87,965.34Z"/><path class="cls-6" d="M741.87,964.94c11.51,0,23-.22,34.53-.75s23-1.2,34.53-1.67,23-.78,34.54-.78q8.63,0,17.26.18c2.88.07,5.76.09,8.64.19.74,0,1.34,0,2,0s1.32,0,2,0l2-.21,1-.1c.33,0,.65-.12,1-.18a33.51,33.51,0,0,0,14.59-6.26,30.21,30.21,0,0,0,5.79-5.62,30.52,30.52,0,0,0,2.25-3.38c.31-.6.71-1.16,1-1.79l.82-1.86a26.82,26.82,0,0,0,1.83-7.95,27.27,27.27,0,0,0-.53-8.2,28.92,28.92,0,0,0-8-14.26,32.89,32.89,0,0,0-6.55-5.07,31.47,31.47,0,0,0-3.73-1.84c-.64-.26-1.27-.57-1.92-.78l-2-.63a15.61,15.61,0,0,0-2-.52l-2-.43-2.06-.24a15.61,15.61,0,0,0-2.06-.17,37,37,0,0,0-8.21.53,34.66,34.66,0,0,0-14.73,6.51A30.82,30.82,0,0,0,842.15,922a3,3,0,0,1-3.9,1.61,3,3,0,0,1-1.53-1.44l-.09-.17a30.76,30.76,0,0,0-12.36-12.93,34.12,34.12,0,0,0-34.48.49,29.59,29.59,0,0,0-11.52,13,4.26,4.26,0,0,1-5.64,2.14,4.19,4.19,0,0,1-2.12-2.09l0,0a29.33,29.33,0,0,0-10.25-11.89,32.93,32.93,0,0,0-15.05-5.49,20,20,0,0,0-2-.17,17.36,17.36,0,0,0-2,0l-2.05.06a20,20,0,0,0-2,.22,30.48,30.48,0,0,0-4,.71,17,17,0,0,0-2,.56,18.3,18.3,0,0,0-1.94.63l-1.9.77c-.65.24-1.22.61-1.84.91a34.18,34.18,0,0,0-3.55,2.07c-.57.38-1.09.82-1.64,1.23l-.83.63c-.26.22-.5.46-.75.69-.5.47-1,.93-1.51,1.41l-1.37,1.54a27.59,27.59,0,0,0-4.45,7l-.44.95c-.13.32-.22.66-.34,1-.22.66-.47,1.32-.67,2a28.65,28.65,0,0,0-.78,4.13A27.84,27.84,0,0,0,712.21,948a34,34,0,0,0,5.27,7.06c.52.52,1.1,1,1.65,1.5l.83.74.9.66c.6.44,1.2.89,1.81,1.32l1.93,1.13a15.75,15.75,0,0,0,2,1c.68.31,1.34.67,2,.93a38.92,38.92,0,0,0,4.29,1.38A37.86,37.86,0,0,0,741.87,964.94Zm0,.8a41.51,41.51,0,0,1-9.16-1,38.29,38.29,0,0,1-4.45-1.28c-.73-.25-1.43-.58-2.15-.87a17.47,17.47,0,0,1-2.11-1l-2.06-1.09c-.67-.4-1.32-.83-2-1.25l-1-.63-.92-.72c-.61-.49-1.24-.95-1.84-1.46a36.29,36.29,0,0,1-6.25-7c-.45-.66-.81-1.37-1.22-2l-.61-1-.5-1.08c-.32-.73-.68-1.45-1-2.2l-.76-2.29a31.23,31.23,0,0,1-1.34-9.63,34,34,0,0,1,.4-4.91c.15-.81.35-1.61.53-2.42.1-.41.18-.81.3-1.21l.4-1.18a33.38,33.38,0,0,1,4.52-8.88l1.51-2c.55-.63,1.13-1.23,1.7-1.85.28-.31.56-.62.86-.92l.93-.83c.63-.55,1.24-1.14,1.9-1.66a39,39,0,0,1,8.62-5.16A41.29,41.29,0,0,1,746,896.92a40.2,40.2,0,0,1,19,6.59A36.83,36.83,0,0,1,778.27,919h-7.79a37.18,37.18,0,0,1,15.12-16.42,41.44,41.44,0,0,1,42.27.49,37.71,37.71,0,0,1,8.42,7.11,35.27,35.27,0,0,1,5.86,9.33h-5.52a35.89,35.89,0,0,1,12.26-13.86,39.19,39.19,0,0,1,17-6.22,40.94,40.94,0,0,1,17.77,1.79,37.83,37.83,0,0,1,15.08,9.32,34,34,0,0,1,5.4,7.1l1.05,2a22.24,22.24,0,0,1,.89,2.07,31.26,31.26,0,0,1,1.41,4.26,32.34,32.34,0,0,1-.67,17.84l-.78,2.15c-.25.72-.64,1.38-.95,2.07a33.3,33.3,0,0,1-2.27,4,36.59,36.59,0,0,1-6,6.88,38.47,38.47,0,0,1-16.25,8.51c-.37.09-.75.2-1.12.28l-1.15.2-2.3.39c-1.53.15-3.15.28-4.61.35-2.88.1-5.76.12-8.64.19-5.75.12-11.51.19-17.26.17q-17.26,0-34.54-.77c-11.51-.48-23-1.2-34.53-1.67S753.38,965.73,741.87,965.74Z"/><path class="cls-12" d="M611.93,965.34H742c19.43,0,35.18-14.44,35.18-32.25S761.39,900.83,742,900.83c-14.67,0-27.23,8.23-32.51,19.92-5.28-11.69-17.84-19.92-32.51-19.92s-27.22,8.23-32.51,19.92c-5.28-11.69-17.84-19.92-32.5-19.92-19.44,0-35.19,14.44-35.19,32.26S592.49,965.34,611.93,965.34Z"/><path class="cls-6" d="M611.93,964.94c11.51,0,23-.22,34.53-.75s23-1.2,34.53-1.67,23-.78,34.53-.78q8.64,0,17.27.18c2.88.07,5.75.09,8.63.19.75,0,1.35,0,2,0s1.32,0,2,0l2-.21,1-.1c.32,0,.65-.12,1-.18A33.51,33.51,0,0,0,764,955.32a28.26,28.26,0,0,0,8-9c.32-.6.72-1.16,1-1.79l.82-1.86a26.81,26.81,0,0,0,1.82-7.95,27.26,27.26,0,0,0-.52-8.2,29.07,29.07,0,0,0-8-14.26,32.67,32.67,0,0,0-6.56-5.07,31.34,31.34,0,0,0-3.72-1.84c-.65-.26-1.27-.57-1.93-.78l-2-.63a15.06,15.06,0,0,0-2-.52l-2-.43-2.06-.24a15.75,15.75,0,0,0-2.06-.17,37,37,0,0,0-8.21.53,34.6,34.6,0,0,0-14.73,6.51A30.74,30.74,0,0,0,712.21,922a3,3,0,0,1-3.9,1.61,2.92,2.92,0,0,1-1.53-1.44l-.09-.17a30.88,30.88,0,0,0-12.36-12.93,34.12,34.12,0,0,0-34.48.49,29.53,29.53,0,0,0-11.52,13,4.28,4.28,0,0,1-7.77,0l0,0a29.28,29.28,0,0,0-10.26-11.89,32.85,32.85,0,0,0-15-5.49,19.61,19.61,0,0,0-2-.17,17.36,17.36,0,0,0-2,0l-2,.06a20,20,0,0,0-2,.22,30.62,30.62,0,0,0-4,.71,17.4,17.4,0,0,0-2,.56,19.25,19.25,0,0,0-2,.63l-1.9.77c-.64.24-1.22.61-1.83.91a32.21,32.21,0,0,0-3.55,2.07c-.57.38-1.09.82-1.65,1.23l-.82.63c-.26.22-.5.46-.76.69-.49.47-1,.93-1.5,1.41l-1.38,1.54a27.56,27.56,0,0,0-4.44,7l-.44.95c-.13.32-.22.66-.34,1-.22.66-.47,1.32-.67,2a28.67,28.67,0,0,0-.79,4.13A27.92,27.92,0,0,0,582.26,948a34.41,34.41,0,0,0,5.28,7.06c.52.52,1.1,1,1.64,1.5l.84.74.9.66c.6.44,1.19.89,1.81,1.32l1.93,1.13a15,15,0,0,0,2,1c.69.31,1.35.67,2.05.93a37.4,37.4,0,0,0,13.23,2.55Zm0,.8a41.45,41.45,0,0,1-9.16-1,38.29,38.29,0,0,1-4.45-1.28c-.73-.25-1.44-.58-2.15-.87a18.35,18.35,0,0,1-2.12-1L592,960.49c-.66-.4-1.31-.83-2-1.25l-1-.63-.92-.72c-.61-.49-1.24-.95-1.84-1.46a36.29,36.29,0,0,1-6.25-7c-.45-.66-.81-1.37-1.22-2l-.61-1-.5-1.08c-.33-.73-.69-1.45-1-2.2l-.77-2.29a31.52,31.52,0,0,1-1.33-9.63,32.62,32.62,0,0,1,.4-4.91c.15-.81.35-1.61.53-2.42.1-.41.18-.81.29-1.21l.41-1.18a33.08,33.08,0,0,1,4.52-8.88l1.51-2c.55-.63,1.13-1.23,1.69-1.85.29-.31.57-.62.87-.92l.93-.83c.63-.55,1.24-1.14,1.9-1.66a38.71,38.71,0,0,1,8.61-5.16A41.33,41.33,0,0,1,616,896.92a40.23,40.23,0,0,1,19.05,6.59A36.9,36.9,0,0,1,648.33,919h-7.79a37.12,37.12,0,0,1,15.12-16.42,41.44,41.44,0,0,1,42.27.49,37.71,37.71,0,0,1,8.42,7.11,35.27,35.27,0,0,1,5.86,9.33h-5.52A35.89,35.89,0,0,1,719,905.64a39.15,39.15,0,0,1,17-6.22,40.94,40.94,0,0,1,17.77,1.79,37.83,37.83,0,0,1,15.08,9.32,34.32,34.32,0,0,1,5.4,7.1l1,2a22.24,22.24,0,0,1,.89,2.07,31.26,31.26,0,0,1,1.41,4.26,32.34,32.34,0,0,1-.68,17.84l-.77,2.15c-.25.72-.64,1.38-1,2.07a34.73,34.73,0,0,1-2.27,4,36.59,36.59,0,0,1-6,6.88,38.47,38.47,0,0,1-16.25,8.51c-.37.09-.75.2-1.13.28l-1.14.2-2.31.39c-1.52.15-3.14.28-4.61.35-2.88.1-5.75.12-8.63.19-5.76.12-11.51.19-17.27.17q-17.26,0-34.53-.77c-11.51-.48-23-1.2-34.53-1.67S623.44,965.73,611.93,965.74Z"/><path class="cls-13" d="M482,965.34H612c19.44,0,35.19-14.44,35.19-32.25S631.45,900.83,612,900.83c-14.66,0-27.22,8.23-32.5,19.92-5.29-11.69-17.85-19.92-32.51-19.92s-27.22,8.23-32.51,19.92c-5.28-11.69-17.84-19.92-32.51-19.92-19.43,0-35.18,14.44-35.18,32.26S462.55,965.34,482,965.34Z"/><path class="cls-13" d="M352,965.34h130c19.43,0,35.19-14.44,35.19-32.25s-15.76-32.26-35.19-32.26c-14.66,0-27.22,8.23-32.51,19.92-5.28-11.69-17.84-19.92-32.5-19.92s-27.23,8.23-32.51,19.92c-5.29-11.69-17.84-19.92-32.51-19.92-19.43,0-35.18,14.44-35.18,32.26S332.61,965.34,352,965.34Z"/><path class="cls-12" d="M222.1,965.34h130c19.43,0,35.18-14.44,35.18-32.25s-15.75-32.26-35.18-32.26c-14.67,0-27.22,8.23-32.51,19.92-5.28-11.69-17.84-19.92-32.51-19.92s-27.22,8.23-32.5,19.92c-5.29-11.69-17.85-19.92-32.51-19.92-19.43,0-35.19,14.44-35.19,32.26S202.67,965.34,222.1,965.34Z"/><path class="cls-6" d="M222.1,964.94c11.51,0,23-.22,34.53-.75s23-1.2,34.53-1.67,23-.78,34.53-.78q8.64,0,17.27.18c2.88.07,5.76.09,8.63.19.75,0,1.35,0,2,0s1.32,0,2,0l2-.21,1-.1c.33,0,.65-.12,1-.18a33.51,33.51,0,0,0,14.59-6.26,30.21,30.21,0,0,0,5.79-5.62,29.09,29.09,0,0,0,2.24-3.38c.32-.6.72-1.16,1-1.79l.82-1.86a26.5,26.5,0,0,0,1.82-7.95,26.94,26.94,0,0,0-.52-8.2,29.07,29.07,0,0,0-8-14.26,32.67,32.67,0,0,0-6.56-5.07,30.6,30.6,0,0,0-3.72-1.84c-.65-.26-1.27-.57-1.93-.78l-2-.63a15.06,15.06,0,0,0-2-.52l-2-.43-2.06-.24a15.61,15.61,0,0,0-2.06-.17,37,37,0,0,0-8.21.53A34.6,34.6,0,0,0,332,909.62,30.82,30.82,0,0,0,322.38,922a3,3,0,0,1-3.9,1.61,3,3,0,0,1-1.53-1.44l-.09-.17a30.82,30.82,0,0,0-12.36-12.93,34.12,34.12,0,0,0-34.48.49,29.53,29.53,0,0,0-11.52,13,4.26,4.26,0,0,1-5.64,2.14,4.19,4.19,0,0,1-2.12-2.09l0,0a29.33,29.33,0,0,0-10.25-11.89,32.93,32.93,0,0,0-15.05-5.49,20,20,0,0,0-2-.17,17.36,17.36,0,0,0-2,0l-2.05.06a20,20,0,0,0-2,.22,30.48,30.48,0,0,0-4,.71,17,17,0,0,0-2,.56,19.25,19.25,0,0,0-1.95.63l-1.89.77a19.65,19.65,0,0,0-1.84.91,33.17,33.17,0,0,0-3.55,2.07c-.57.38-1.09.82-1.65,1.23l-.82.63c-.26.22-.5.46-.75.69-.5.47-1,.93-1.51,1.41l-1.37,1.54a27.32,27.32,0,0,0-4.45,7l-.44.95c-.13.32-.22.66-.34,1-.22.66-.47,1.32-.67,2a30.1,30.1,0,0,0-.79,4.13,27.92,27.92,0,0,0,3.2,16.65,34,34,0,0,0,5.27,7.06c.52.52,1.1,1,1.65,1.5l.83.74.9.66c.6.44,1.19.89,1.81,1.32l1.93,1.13a15.11,15.11,0,0,0,2,1c.68.31,1.34.67,2,.93a38.25,38.25,0,0,0,4.29,1.38A37.86,37.86,0,0,0,222.1,964.94Zm0,.8a41.51,41.51,0,0,1-9.16-1,38.29,38.29,0,0,1-4.45-1.28c-.73-.25-1.43-.58-2.15-.87a17.47,17.47,0,0,1-2.11-1l-2.06-1.09c-.67-.4-1.32-.83-2-1.25l-1-.63-.92-.72c-.61-.49-1.24-.95-1.84-1.46a36.29,36.29,0,0,1-6.25-7c-.45-.66-.81-1.37-1.22-2l-.61-1-.5-1.08c-.33-.73-.69-1.45-1-2.2l-.77-2.29a31.52,31.52,0,0,1-1.33-9.63,34,34,0,0,1,.4-4.91c.15-.81.35-1.61.53-2.42.1-.41.18-.81.3-1.21l.4-1.18a33.08,33.08,0,0,1,4.52-8.88l1.51-2c.55-.63,1.13-1.23,1.7-1.85.28-.31.56-.62.86-.92l.93-.83c.63-.55,1.24-1.14,1.9-1.66a38.78,38.78,0,0,1,8.62-5.16,41.27,41.27,0,0,1,19.73-3.15,40.2,40.2,0,0,1,19.05,6.59A36.83,36.83,0,0,1,258.5,919h-7.79a37.18,37.18,0,0,1,15.12-16.42,41.44,41.44,0,0,1,42.27.49,37.71,37.71,0,0,1,8.42,7.11,35.27,35.27,0,0,1,5.86,9.33h-5.52a35.89,35.89,0,0,1,12.26-13.86,39.19,39.19,0,0,1,17-6.22,40.94,40.94,0,0,1,17.77,1.79A37.83,37.83,0,0,1,379,910.53a34.32,34.32,0,0,1,5.4,7.1l1.05,2a22.24,22.24,0,0,1,.89,2.07,31.26,31.26,0,0,1,1.41,4.26,32.34,32.34,0,0,1-.68,17.84l-.77,2.15c-.25.72-.64,1.38-1,2.07a33.3,33.3,0,0,1-2.27,4,36.59,36.59,0,0,1-6,6.88,38.47,38.47,0,0,1-16.25,8.51c-.37.09-.75.2-1.13.28l-1.14.2-2.3.39c-1.53.15-3.15.28-4.62.35-2.87.1-5.75.12-8.63.19-5.75.12-11.51.19-17.27.17q-17.26,0-34.53-.77c-11.51-.48-23-1.2-34.53-1.67S233.61,965.73,222.1,965.74Z"/><path class="cls-12" d="M92.15,965.34h130c19.43,0,35.18-14.44,35.18-32.25s-15.75-32.26-35.18-32.26c-14.67,0-27.23,8.23-32.51,19.92-5.29-11.69-17.84-19.92-32.51-19.92s-27.22,8.23-32.51,19.92c-5.28-11.69-17.84-19.92-32.51-19.92C72.72,900.83,57,915.27,57,933.09S72.72,965.34,92.15,965.34Z"/><path class="cls-6" d="M92.15,964.94c11.52,0,23-.22,34.54-.75s23-1.2,34.53-1.67,23-.78,34.53-.78q8.64,0,17.27.18c2.88.07,5.75.09,8.63.19.75,0,1.34,0,2,0s1.32,0,2,0l2-.21,1-.1c.32,0,.65-.12,1-.18a33.56,33.56,0,0,0,14.59-6.26,28.26,28.26,0,0,0,8-9c.32-.6.72-1.16,1-1.79l.82-1.86a26.81,26.81,0,0,0,1.82-7.95,27.26,27.26,0,0,0-.52-8.2,29.07,29.07,0,0,0-8-14.26,32.67,32.67,0,0,0-6.56-5.07,30.73,30.73,0,0,0-3.73-1.84c-.64-.26-1.26-.57-1.92-.78l-2-.63a15.47,15.47,0,0,0-2-.52l-2-.43-2.06-.24a15.89,15.89,0,0,0-2.06-.17,36.94,36.94,0,0,0-8.21.53A34.55,34.55,0,0,0,202,909.62,30.74,30.74,0,0,0,192.44,922a3,3,0,0,1-5.44.17l-.08-.17a30.88,30.88,0,0,0-12.36-12.93,34.12,34.12,0,0,0-34.48.49,29.47,29.47,0,0,0-11.52,13,4.28,4.28,0,0,1-7.77,0l0,0a29.36,29.36,0,0,0-10.26-11.89,32.85,32.85,0,0,0-15.05-5.49,19.61,19.61,0,0,0-2-.17,17.36,17.36,0,0,0-2,0l-2,.06a20,20,0,0,0-2,.22,30.62,30.62,0,0,0-4,.71,16.28,16.28,0,0,0-2,.56,18.47,18.47,0,0,0-1.95.63l-1.9.77c-.64.24-1.22.61-1.84.91a33,33,0,0,0-3.54,2.07c-.57.38-1.1.82-1.65,1.23l-.82.63c-.26.22-.5.46-.76.69-.5.47-1,.93-1.51,1.41L66,916.36a27.56,27.56,0,0,0-4.44,7l-.44.95c-.13.32-.23.66-.34,1-.22.66-.47,1.32-.67,2a28.67,28.67,0,0,0-.79,4.13A27.92,27.92,0,0,0,62.49,948a34.41,34.41,0,0,0,5.28,7.06c.52.52,1.1,1,1.64,1.5l.84.74.9.66c.6.44,1.19.89,1.81,1.32l1.93,1.13a15,15,0,0,0,2,1c.69.31,1.35.67,2.05.93a37.41,37.41,0,0,0,13.22,2.55Zm0,.8a41.58,41.58,0,0,1-9.16-1,38.14,38.14,0,0,1-4.44-1.28c-.73-.25-1.44-.58-2.16-.87a19,19,0,0,1-2.11-1l-2.06-1.09c-.66-.4-1.31-.83-2-1.25l-1-.63-.92-.72c-.61-.49-1.24-.95-1.84-1.46a36.29,36.29,0,0,1-6.25-7c-.45-.66-.81-1.37-1.22-2l-.61-1-.5-1.08c-.33-.73-.69-1.45-1-2.2l-.77-2.29a31.84,31.84,0,0,1-1.34-9.63,35.46,35.46,0,0,1,.4-4.91c.16-.81.36-1.61.54-2.42.1-.41.18-.81.29-1.21l.41-1.18A33.35,33.35,0,0,1,61,912.49l1.52-2c.55-.63,1.13-1.23,1.69-1.85.29-.31.57-.62.87-.92l.93-.83c.63-.55,1.24-1.14,1.89-1.66a39,39,0,0,1,8.62-5.16,41.33,41.33,0,0,1,19.74-3.15,40.23,40.23,0,0,1,19,6.59A36.9,36.9,0,0,1,128.56,919h-7.79a37.12,37.12,0,0,1,15.12-16.42,41.44,41.44,0,0,1,42.27.49,37.71,37.71,0,0,1,8.42,7.11,35.27,35.27,0,0,1,5.86,9.33h-5.52a35.94,35.94,0,0,1,12.25-13.86,39.19,39.19,0,0,1,17-6.22A40.94,40.94,0,0,1,234,901.21a37.83,37.83,0,0,1,15.08,9.32,34.32,34.32,0,0,1,5.4,7.1l1.05,2a19.77,19.77,0,0,1,.88,2.07,31.3,31.3,0,0,1,1.42,4.26,32.44,32.44,0,0,1-.68,17.84l-.78,2.15a20.31,20.31,0,0,1-.95,2.07,34.65,34.65,0,0,1-2.26,4,37,37,0,0,1-6,6.88,38.47,38.47,0,0,1-16.25,8.51c-.38.09-.75.2-1.13.28l-1.15.2-2.3.39c-1.52.15-3.14.28-4.61.35-2.88.1-5.75.12-8.63.19-5.76.12-11.51.19-17.27.17q-17.26,0-34.53-.77c-11.51-.48-23-1.2-34.53-1.67S103.67,965.73,92.15,965.74Z"/><line class="cls-3" x1="695.83" y1="466.58" x2="696.12" y2="508.36"/><line class="cls-3" x1="682.32" y1="477.71" x2="712.65" y2="500.7"/><line class="cls-3" x1="677.42" y1="497.61" x2="713" y2="477.34"/><line class="cls-3" x1="765.88" y1="524.99" x2="761.45" y2="566.53"/><line class="cls-3" x1="751.2" y1="534.51" x2="778.74" y2="560.78"/><line class="cls-3" x1="744.08" y1="553.73" x2="781.72" y2="537.62"/><line class="cls-3" x1="788.68" y1="460.14" x2="784.24" y2="501.68"/><line class="cls-3" x1="773.99" y1="469.67" x2="801.53" y2="495.94"/><line class="cls-3" x1="766.88" y1="488.89" x2="804.51" y2="472.78"/><line class="cls-3" x1="285.5" y1="466.65" x2="265.08" y2="503.09"/><line class="cls-3" x1="268.25" y1="469.63" x2="283.23" y2="504.61"/><line class="cls-3" x1="254.15" y1="484.49" x2="295.09" y2="484.49"/><line class="cls-3" x1="212.23" y1="543.71" x2="173.31" y2="558.9"/><line class="cls-3" x1="197.01" y1="535.06" x2="186.37" y2="571.6"/><line class="cls-3" x1="176.68" y1="537.59" x2="208.31" y2="563.59"/><line class="cls-3" x1="208.38" y1="482.37" x2="167.76" y2="472.61"/><line class="cls-3" x1="200.83" y1="466.58" x2="171.23" y2="490.49"/><line class="cls-3" x1="182.69" y1="457.04" x2="193.81" y2="496.44"/><path class="cls-3" d="M321.75,782.76c.39.74.78,1.47,1.18,2.2"/><path class="cls-14" d="M333.9,802.45A178.4,178.4,0,0,0,631,793.87"/><path class="cls-3" d="M636.2,785c.4-.73.8-1.46,1.19-2.2"/><line class="cls-15" x1="159.32" y1="97.63" x2="184.46" y2="163.95"/><line class="cls-15" x1="797.46" y1="97.63" x2="772.32" y2="163.95"/><path class="cls-3" d="M229.27,1013.36c-.34-8.37-13.86-10.59-18.86-3.85s-2.19,16.82,3.71,22.78c11.32,11.43,30.29,11,45.25,5.11s58.65-42.07,88.38-24.06c11.28,6.84,18.43,18.94,25.15,30.29,15.58,26.29,32.24,28.27,44,28.19,9.06-.06,18.87-8.64,23.09-16.66s1.55-18.91-9.59-20.74c-2.62-.43-16.77-1.79-16,12.25"/><path class="cls-3" d="M729.87,1013.36c.34-8.37,13.86-10.59,18.86-3.85s2.19,16.82-3.71,22.78c-11.32,11.43-30.29,11-45.26,5.11s-58.64-42.07-88.37-24.06c-11.28,6.84-18.43,18.94-25.15,30.29-15.58,26.29-32.24,28.27-44,28.19-9.06-.06-18.87-8.64-23.09-16.66s-1.56-18.91,9.59-20.74c2.62-.43,16.77-1.79,16,12.25"/><path class="cls-3" d="M479.52,1011.19c-3.19-3.73-4.91-9.22-7.4-13.84s-6.51-8.68-10.59-7.31c-3.84,1.29-6.08,7-6.36,12.38a35.1,35.1,0,0,0,7.37,22.6c4.52,5.88,10.18,9.81,15.76,13.66"/><path class="cls-3" d="M479.62,1011.19c3.19-3.73,4.91-9.22,7.39-13.84s6.51-8.68,10.59-7.31c3.84,1.29,6.09,7,6.37,12.38a35.1,35.1,0,0,1-7.37,22.6c-4.52,5.88-10.19,9.81-15.76,13.66"/><line class="cls-15" x1="62.78" y1="852.88" x2="166.7" y2="852.88"/><line class="cls-15" x1="841.45" y1="806.17" x2="838.95" y2="857.73"/></svg>